<?xml version="1.0" encoding="UTF-8"?>
<svg xmlns="http://www.w3.org/2000/svg" xmlns:xlink="http://www.w3.org/1999/xlink" viewBox="0 0 197.9 230.81">
  <defs>
    <style>
      .cls-1 {
        fill: #bdc9e7;
      }

      .cls-1, .cls-2, .cls-3, .cls-4, .cls-5, .cls-6, .cls-7, .cls-8, .cls-9, .cls-10, .cls-11, .cls-12, .cls-13, .cls-14, .cls-15, .cls-16, .cls-17 {
        stroke-width: 0px;
      }

      .cls-2 {
        fill: #fbb672;
      }

      .cls-3 {
        fill: #808285;
      }

      .cls-4 {
        fill: #58595b;
      }

      .cls-5 {
        fill: #be8b57;
      }

      .cls-6 {
        fill: #e6e7e8;
      }

      .cls-7 {
        mix-blend-mode: multiply;
      }

      .cls-7, .cls-13 {
        fill: #939598;
      }

      .cls-18 {
        isolation: isolate;
      }

      .cls-8 {
        mix-blend-mode: screen;
        opacity: .5;
      }

      .cls-8, .cls-15 {
        fill: #f1f2f2;
      }

      .cls-19 {
        stroke: #231f20;
        stroke-miterlimit: 10;
      }

      .cls-19, .cls-14 {
        fill: #231f20;
      }

      .cls-20 {
        clip-path: url(#clippath-6);
      }

      .cls-9 {
        fill: #754c29;
      }

      .cls-10 {
        fill: none;
      }

      .cls-21 {
        clip-path: url(#clippath-7);
      }

      .cls-22 {
        clip-path: url(#clippath-1);
      }

      .cls-23 {
        clip-path: url(#clippath-4);
      }

      .cls-11 {
        fill: #f9bab6;
      }

      .cls-12 {
        fill: #fff;
      }

      .cls-24 {
        clip-path: url(#clippath-9);
      }

      .cls-25 {
        clip-path: url(#clippath);
      }

      .cls-16 {
        fill: #bcbec0;
      }

      .cls-17 {
        fill: #414042;
      }

      .cls-26 {
        clip-path: url(#clippath-3);
      }

      .cls-27 {
        clip-path: url(#clippath-8);
      }

      .cls-28 {
        clip-path: url(#clippath-5);
      }

      .cls-29 {
        clip-path: url(#clippath-10);
      }
    </style>
    <clipPath id="clippath">
      <path class="cls-10" d="m50.78,78.76s23.92-26.97,77.15-17.83c45.63,7.84,47.39,39.92,47.39,39.92,0,0-3.38,21.48-1.5,28.03,0,0,6.71,18.5,8.04,26.06,1.33,7.57-12.65,52.28-35.59,62.98-15.64,7.3-32.48,6.68-32.48,6.68,0,0-47.31-13.72-68.07-44.78,0,0-32.22,5.15-37.79-37.04,0,0,1.12-20.87,13.89-27.05,12.77-6.19,20.92,1.82,20.92,1.82l8.02-38.79Z"/>
    </clipPath>
    <clipPath id="clippath-1">
      <path class="cls-10" d="m50.78,78.76s23.92-26.97,77.15-17.83c45.63,7.84,47.39,39.92,47.39,39.92,0,0-3.38,21.48-1.5,28.03,0,0,6.71,18.5,8.04,26.06,1.33,7.57-12.65,52.28-35.59,62.98-15.64,7.3-32.48,6.68-32.48,6.68,0,0-47.31-13.72-68.07-44.78,0,0-32.22,5.15-37.79-37.04,0,0,1.12-20.87,13.89-27.05,12.77-6.19,20.92,1.82,20.92,1.82l8.02-38.79Z"/>
    </clipPath>
    <clipPath id="clippath-3">
      <path class="cls-10" d="m13.76,124.73s-16.78-18-7.88-48.38,51.95-40.24,51.95-40.24c0,0,21.99-34.71,69.13-34.25s58.15,22.81,58.15,22.81c0,0,21.84,27.77-12.86,58.95,0,0-15.45-23.07-47.55-24.62-32.1-1.55-63.04,6.36-72.57,19.72-9.52,13.36-11.64,35.43-11.64,35.43,0,0-7.98-2.19-14.28.14-6.3,2.33-12.44,10.43-12.44,10.43Z"/>
    </clipPath>
    <clipPath id="clippath-4">
      <path class="cls-10" d="m173.86,80.12c-.87.7-1.77,1.36-2.7,1.97-2.42-3.31-17.85-22.72-47.22-24.13-29.72-1.43-58.44,5.24-70.09,16.83-3.17-8.91-3.05-18.76.31-27.65,3.55-9.65,10.29-17.96,18.2-24.52,6.8-5.58,14.45-10.01,22.59-13.26,7.73-2.37,16.54-3.84,26.47-3.74,47.14.46,58.15,22.81,58.15,22.81,0,0,18.55,23.58-5.71,51.69Z"/>
    </clipPath>
    <clipPath id="clippath-5">
      <path class="cls-10" d="m173.97,131.91c-7.55-1.25-15.4-.59-22.64,1.88,0,0-4.06-6.21-1.16-10.43,2.15-3.13,7.14-3.47,7.14-3.47,10.48-.76,15.19,4.12,16.63,11.58,0,.03,0,.06.01.1,0,.11,0,.23.02.34Z"/>
    </clipPath>
    <clipPath id="clippath-6">
      <path class="cls-10" d="m111.31,122.08c4.24,2.66,7.65,5.8,8.68,11.49.05.29-.2.55-.5.5-13.73-2.24-30.07.76-42.69,9.72-.24.17-.57.06-.66-.22-1.02-3.34-5.96-20.48-.19-22.49,23.1-8.04,35.35,1,35.35,1Z"/>
    </clipPath>
    <clipPath id="clippath-7">
      <path class="cls-10" d="m151.32,133.79c7.26-2.47,15.14-3.12,22.71-1.86-1.32-7.71-6.03-12.81-16.73-12.03,0,0-4.99.34-7.14,3.47-2.9,4.22,1.16,10.43,1.16,10.43Z"/>
    </clipPath>
    <clipPath id="clippath-8">
      <circle class="cls-10" cx="157.29" cy="126.99" r="6.37"/>
    </clipPath>
    <clipPath id="clippath-9">
      <path class="cls-10" d="m111.31,122.08c4.39,2.75,7.89,6.02,8.78,12.09-14.03-2.46-30.9.6-43.77,9.96,0,0-6.76-20.83-.37-23.05,23.1-8.04,35.35,1,35.35,1Z"/>
    </clipPath>
    <clipPath id="clippath-10">
      <circle class="cls-10" cx="93.2" cy="128.77" r="11.82"/>
    </clipPath>
  </defs>
  <g class="cls-18">
    <g id="Layer_2" data-name="Layer 2">
      <g id="Layer_5" data-name="Layer 5">
        <g>
          <g>
            <polygon class="cls-17" points="173.46 121.57 195.33 121.72 194.3 113.56 172.79 116.27 173.46 121.57"/>
            <path class="cls-14" d="m174.12,120.82c7.13-.1,14.14-.15,21.22-.1l-1,1.12-1.03-8.16,1.12.87c-1.03-.91-1.92-.79-2.81-.65l-2.69.35-5.37.7-5.38.65-2.69.32c-.9.09-1.8.14-2.56,1.33l.87-1.12c.2,1.55.29,3.05.34,4.67,0,0-.05-1.62,0,0Zm-1.33,1.5c-.46-2.22-.86-4.61-1.12-6.91,0,0,.99-.12.99-.12l21.51-2.71.99-.12c.01-.17,1.09,8.87,1.15,9.15,0,0,.14,1.13.14,1.13-7.89-.04-15.84-.2-23.67-.42h0Z"/>
          </g>
          <path class="cls-2" d="m50.78,78.76s23.92-26.97,77.15-17.83c45.63,7.84,47.39,39.92,47.39,39.92,0,0-3.38,21.48-1.5,28.03,0,0,6.71,18.5,8.04,26.06,1.33,7.57-12.65,52.28-35.59,62.98-15.64,7.3-32.48,6.68-32.48,6.68,0,0-47.31-13.72-68.07-44.78,0,0-32.22,5.15-37.79-37.04,0,0,1.12-20.87,13.89-27.05,12.77-6.19,20.92,1.82,20.92,1.82l8.02-38.79Z"/>
          <g class="cls-25">
            <g>
              <path class="cls-11" d="m115.8,222.71c-.36,0-.62,0-.78,0-3.14-.95-47.51-14.82-67.1-44.15l-.51-.77-.91.15s-1.17.18-3.05.18c-8.51,0-28.74-3.5-33.06-35.84.12-1.71,32.33-24.19,32.36-24.15l1.88,1.82.53-2.56,7.94-38.39c2.26-2.32,19.75-18.97,54.51-18.97,6.75,0,13.84.63,21.07,1.87,42.8,7.35,45.99,35.87,46.19,38.44-.33,2.15-3.31,21.94-1.44,28.49.1.28,6.71,18.56,8.01,25.92,1.31,7.46-13.14,51.33-34.78,61.42-13.04,6.08-26.92,6.56-30.86,6.56Z"/>
              <path class="cls-2" d="m46.12,80.7s23.92-28.06,77.15-18.55c45.63,8.15,47.39,41.54,47.39,41.54,0,0-3.38,22.34-1.5,29.17,0,0,6.71,19.25,8.04,27.12,1.33,7.87-12.65,54.4-35.59,65.53-15.64,7.59-32.48,6.95-32.48,6.95,0,0-47.31-14.27-68.07-46.59,0,0-32.22,5.36-37.79-38.53,0,0,1.12-21.71,13.89-28.15,12.77-6.44,20.92,1.9,20.92,1.9l8.02-40.37Z"/>
              <path class="cls-5" d="m53.34,189.67c16.61,11.11,42.86,19.66,62.6,22.69,11.14,1.71,22.5.66,33.7-.6,2.66-.3,5.89-.36,7.39,1.86,1.72,2.55-.26,5.95-2.42,8.14-8.99,9.11-21.9,13.32-34.6,14.91-14.4,1.79-29.52.48-42.46-6.09-12.94-6.57-23.39-18.89-25.49-33.25-.41-2.76-6.13-3.74-4.76-6.17,1.38-2.43-.75-5.6,1.71-4.28"/>
            </g>
          </g>
          <path class="cls-5" d="m159.7,113.72c2.59-1.45.79-3.21-1.34-3.49-1.8-.23-3.51.05-5.21.66-1.87.68-6.1,2.96-1.9,3.51,2.77.36,5.89.75,8.45-.68Z"/>
          <path class="cls-5" d="m104.61,116.82c-.53,0-1.22-.15-1.28-.68-.05-.44.39-.75.79-.95,1.95-.99,4.07-1.63,6.24-1.9,1.39-.18,4.96-.75,5.93.69,1.16,1.71-3.27,2.05-4.34,2.24-2.42.43-4.88.63-7.34.61Z"/>
          <path class="cls-5" d="m164.37,156.76c-1.24.2-2.59.27-3.68-.36s-1.69-2.21-.9-3.19c.64-.8,1.82-.84,2.85-.82,1.57.04,8.44-.82,9.1,1.15.59,1.78-6.13,2.9-7.37,3.21Z"/>
          <path class="cls-5" d="m55.97,129.24c0-2.6,2-4.92,4.43-5.85,2.43-.93,5.17-.67,7.65.13,1.38.45,2.75,1.09,3.65,2.22,1.56,1.96,1.28,4.75,1.09,7.25-.28,3.66-.18,7.39.76,10.94.94,3.55,2.76,6.93,5.53,9.34,5.02,4.36,12.18,4.94,18.82,5.32,3.76.21,7.52.43,11.29.64-2.39,3.07-6.77,3.57-10.66,3.69-4.35.13-8.74.1-12.98-.88-6.83-1.58-13.04-5.68-17.18-11.33-4.14-5.65-6.18-12.81-5.63-19.79-1.07-.09-2.14-.19-3.21-.28-1.15-.1-2.47-.97-3.54-1.39Z"/>
          <path class="cls-5" d="m123.08,122.2c3.23,1.03,6.27,3.27,7.39,6.47,1.27,3.63-.11,7.62-1.71,11.12-2,4.37-4.36,8.58-7.05,12.57-.55.82-1.36,1.73-2.32,1.54-.72-.15-1.19-.9-1.27-1.63s-.12-1.57.29-2.18c3.42-5.11,2.41-11.08,0-14.72-2.36-3.56-5-8.02-5.47-12.3-.29-2.59,1.48-1.95,3.63-1.86s4.41.33,6.52,1Z"/>
          <g class="cls-22">
            <path class="cls-5" d="m174.81,87.2c-4.02-1.26-7.45-3.72-11-5.88-15.96-9.76-35.57-14.18-54.54-12.29-18.97,1.89-37.15,10.07-50.54,22.75-2.37,2.24-4.66,4.67-7.67,6.11-3,1.44-6.98,1.65-9.52-.42-2.64-2.17-2.84-5.93-2.34-9.18,2.29-14.74,14.88-26.74,29.46-32.77,14.58-6.02,30.96-6.95,46.9-6.77,12.56.15,25.56,1.05,36.61,6.63,7.68,3.88,13.93,9.79,20.05,15.61,2.27,2.16,4.54,4.32,6.81,6.48,1.82,1.73,4.69,3.64,5.7,5.94,2.44,5.53-6.62,4.84-9.92,3.8Z"/>
          </g>
          <path class="cls-5" d="m137.03,165.83c-1.41.67-3.67,1.31-3.77,2.03-.09.62,1.76,1.19,3.07,1.31,1.3.12,2.9-.02,4.47-.26,4.91-.75,9.85-2.51,12.7-4.54,1.14-.81,1.97-1.71,1.64-2.4-.75-1.56-4.79-.36-7.78.34-3.75.89-7.35,2.1-10.33,3.52Z"/>
          <path class="cls-5" d="m134.31,196.31c.4-.13.83-.26,1.24-.16s.77.53.63.93c-.12.35-.53.49-.88.58-3.96.98-8.23.66-12-.89-.37-.15-.79-.4-.79-.8,0-.25.19-.47.42-.57s.48-.13.73-.14c1.45-.08,2.9-.01,4.34.22,2.01.32,4.16.51,6.18.73,0,.03.13.08.14.11Z"/>
          <path class="cls-5" d="m94.32,178.9c19.96,10.44,43.94,11.76,63.18,4.04.6-.27,1.81-.43,1.19-.14-4.64,2.21-9.54,3.85-14.56,4.96-5.2,1.15-10.53,1.73-15.85,1.78-5.46.04-10.92-.48-16.28-1.55-5.46-1.09-10.81-2.76-15.91-4.99-.45-.2-.93-.61-1.45-.53-.48.08-.9.46-1.23.78-.59.56-1.12,1.65-1.85,2.01-.39.21,1.34-4.37,1.77-5.12.44-.72.8-1.33.82-1.25h.17Z"/>
          <path class="cls-5" d="m87.44,171.68c-.49-.76-3.74,2.82-2.63,3.52,1.32.84,3.72-1.85,2.63-3.52Z"/>
          <path class="cls-5" d="m31.12,138.44c-.7-.22-1.39-.29-1.88.07-3.22,2.38-1.13,8.26.29,11.01,1.12,2.16,2.66,4.1,4.5,5.67,1.54,1.31,5.79,2.16,6.06,4.64.22,2.05-3.13,2.21-4.52,2.28-2.14.11-4.27-.73-5.96-2.05-1.69-1.32-2.99-3.09-4.04-4.96-2.09-3.72-3.27-7.95-3.41-12.22-.06-1.61.04-3.26.61-4.77.57-1.51,1.65-2.89,3.14-3.51,2.02-.84,4.42-.17,6.14,1.17.66.51,1.24,1.1,1.77,1.74.24.29,2.4,2.77,2.26,3.16-.28.16-2.36-1.08-2.67-1.22-.57-.25-1.44-.75-2.29-1.02Z"/>
          <path class="cls-5" d="m52.02,176.53c-.15-.21-.3-.42-.44-.64-.15-.23-4.88.16-5.32.13-4.21-.26-8.39-1.31-12.18-3.16-5.19-2.52-9.49-6.52-12.64-11.33-4.74-7.24-8.59-16.82-7.33-25.61.48-3.36,1.25-6.69,2.39-9.89.7-1.96,1.54-3.88,2.58-5.69.76-1.33,2.33-4.5,3.83-5.1-.35.14-.7.31-1.06.48-12.77,6.19-13.9,27.05-13.9,27.05,5.57,42.19,37.79,37.04,37.79,37.04.07.1.13.19.2.29,1.48-1.74,4.38-2.07,6.09-3.58Z"/>
          <path class="cls-5" d="m52.9,173.91c-2.81,3.96,4.4,14.85,5.84,18.38-.62-1.53-3.62-3.26-4.71-4.55-1.39-1.65-3.45-3.54-4.72-5.28-1.11-1.5-1.85-2.15-.58-3.83s2.85-2.87,4.17-4.72Z"/>
          <path class="cls-16" d="m13.76,124.73s-16.78-18-7.88-48.38,51.95-40.24,51.95-40.24c0,0,21.99-34.71,69.13-34.25s58.15,22.81,58.15,22.81c0,0,21.84,27.77-12.86,58.95,0,0-15.45-23.07-47.55-24.62-32.1-1.55-63.04,6.36-72.57,19.72-9.52,13.36-11.64,35.43-11.64,35.43,0,0-7.98-2.19-14.28.14-6.3,2.33-12.44,10.43-12.44,10.43Z"/>
          <g class="cls-26">
            <path class="cls-4" d="m29.89,47.51c-5.69,12.5-11.46,30.72-3.97,46.17,8.43,17.39,27.79,19.13,27.82,29.66.04,12.14-25.64,27.91-46.47,22.93-26.51-6.33-46.39-46.55-30.88-74.29,9.51-17.01,30.77-26.56,53.5-24.46Z"/>
          </g>
          <path class="cls-13" d="m173.86,80.12c-.87.7-1.77,1.36-2.7,1.97-2.42-3.31-17.85-22.72-47.22-24.13-29.72-1.43-58.44,5.24-70.09,16.83-3.17-8.91-3.05-18.76.31-27.65,3.55-9.65,10.29-17.96,18.2-24.52,6.8-5.58,14.45-10.01,22.59-13.26,7.73-2.37,16.54-3.84,26.47-3.74,47.14.46,58.15,22.81,58.15,22.81,0,0,18.55,23.58-5.71,51.69Z"/>
          <g class="cls-23">
            <path class="cls-4" d="m160.41,96.65c-.74.66-1.51,1.28-2.32,1.87-2.51-2.48-18.39-16.88-45.56-15.21-27.5,1.69-53.38,9.92-63.12,20.53-3.68-6.99-4.41-15.07-2.08-22.67,2.44-8.24,7.94-15.69,14.67-21.83,5.79-5.22,12.45-9.59,19.67-13.03,6.92-2.68,14.91-4.74,24.06-5.61,43.46-4.16,55.52,13.08,55.52,13.08,0,0,19.1,17.52-.84,42.87Z"/>
          </g>
          <path class="cls-19" d="m177.04,108.59c-7.98-2.97-21.22-3.93-25.83-2.82-1.8.43-3.49,1.78-3.87,3.55-.12.56-.1,1.15.13,1.68.46,1.05,1.63,1.88,2.81,1.86,5.94-.12,8.7-.05,14.19.68"/>
          <path class="cls-14" d="m179.01,148.8c-3.07-7-5.25-14.24-6.2-21.84-.8-7.45,1.17-15.11,1.43-22.28.64-14.31-8.35-27.4-20.59-34.42-8.26-4.87-17.92-6.9-27.4-8.01-33.65-3.56-80.71,5.52-90.17,43.36-.43,2.36-.51,4.78-.05,7.11l-.98.21c-.53-2.48-.48-5.04-.07-7.51,1.32-7.38,5.09-14.09,9.68-19.93,21.03-26.88,73.24-32.31,103.78-21.32,11.83,4.56,22.21,13.58,27.01,25.5,1.91,4.78,2.89,9.95,2.77,15.13-.14,5.11-.94,9.97-1.25,14.73-.68,9.45,2.51,18.8,6.23,27.3,0,0-4.19,1.97-4.19,1.97h0Z"/>
          <g>
            <path class="cls-1" d="m173.97,131.91c-7.55-1.25-15.4-.59-22.64,1.88,0,0-4.06-6.21-1.16-10.43,2.15-3.13,7.14-3.47,7.14-3.47,10.48-.76,15.19,4.12,16.63,11.58,0,.03,0,.06.01.1,0,.11,0,.23.02.34Z"/>
            <g class="cls-28">
              <path class="cls-15" d="m171.94,132.71c-7.55-1.25-15.4-.59-22.64,1.88,0,0-4.06-6.21-1.16-10.43,2.15-3.13,7.14-3.47,7.14-3.47,10.48-.76,15.19,4.12,16.63,11.58,0,.03,0,.06.01.1,0,.11,0,.23.02.34Z"/>
            </g>
            <path class="cls-1" d="m111.31,122.08c4.24,2.66,7.65,5.8,8.68,11.49.05.29-.2.55-.5.5-13.73-2.24-30.07.76-42.69,9.72-.24.17-.57.06-.66-.22-1.02-3.34-5.96-20.48-.19-22.49,23.1-8.04,35.35,1,35.35,1Z"/>
            <g class="cls-20">
              <path class="cls-15" d="m109.49,124.91c4.5,2.28,8.2,5.11,9.69,10.65.08.28-.16.56-.46.54-14.07-1.1-30.36,3.18-42.43,13.06-.23.19-.57.11-.68-.16-1.3-3.22-7.64-19.77-1.97-22.22,22.73-9.82,35.84-1.87,35.84-1.87Z"/>
            </g>
            <g class="cls-21">
              <circle class="cls-19" cx="157.29" cy="126.99" r="7.18"/>
              <circle class="cls-14" cx="157.29" cy="126.99" r="6.37"/>
              <g class="cls-27">
                <ellipse class="cls-12" cx="153.63" cy="125.15" rx="3.8" ry="2.95" transform="translate(-16.48 226.77) rotate(-70.02)"/>
                <ellipse class="cls-12" cx="162.09" cy="130.16" rx="1.8" ry=".81" transform="translate(-4.96 253.89) rotate(-75.29)"/>
              </g>
            </g>
            <g class="cls-24">
              <circle class="cls-19" cx="93.2" cy="128.77" r="13.39"/>
              <circle class="cls-14" cx="93.2" cy="128.77" r="11.82"/>
              <g class="cls-29">
                <ellipse class="cls-12" cx="86.54" cy="125.82" rx="6.89" ry="5.34" transform="translate(-61.28 164.16) rotate(-70.02)"/>
                <ellipse class="cls-12" cx="103.4" cy="130.84" rx="1.82" ry=".94" transform="translate(-54.9 183.31) rotate(-70.02)"/>
              </g>
            </g>
            <path class="cls-14" d="m111.59,121.66c-10.65-6.57-24.15-4.88-35.42-1.02-6.48,2.06-1.62,18.17-.14,23.58.05.21.3.29.48.17,6.26-4.35,13.41-7.31,20.83-8.99,7.5-1.7,15.34-2.01,22.93-.7.21.03.39-.14.37-.35-.63-5.52-4.34-9.96-9.05-12.69Zm-26.65,13.65s-.02,0-.03.02c-3.2,1.36-6.01,2.91-8.95,5.69-1.44-5.89-3.18-17.34.83-18.57,8.68-2.78,18.19-4.06,27.11-1.78l3.38.86c5.45,2.88,10.46,5.58,12.04,11.85-11.29-2.79-23.36-1.78-34.38,1.93Z"/>
            <path class="cls-14" d="m173.98,131.92c-.01-.11-.01-.23-.02-.34-.01-.04-.01-.07-.01-.1s0-.06,0-.09c-.29-3.39-1.77-6.8-4.34-9.12-9.33-7.79-28.4-2.7-18.91,11.5.05.07.13.19.18.25.11.24.6.33.8.42.77-.12,1.87-.51,2.61-.74,6.36-1.92,13.11-2.45,19.71-1.54,0-.08,0-.16,0-.24Zm-11.51-1.48c-3.72.34-7.61.91-10.89,2.81.03.06.11.17.14.23h0c-.05-.07-.15-.14-.24-.17.03-.02.07-.04.1-.06-3.54-6.01-2.5-11.69,5.1-12.78,8.37-1.03,15.11,2.26,16.72,10.78-3.57-.85-7.27-1.07-10.93-.81Z"/>
          </g>
          <path class="cls-17" d="m187.55,107.67c-19.11-.61-39.66,14.62-49.75,14.62s-37.53-6.58-37.53-6.58l-29.35-1.4-32.1-.77,8.65,9.77,20.93,2.74s-.15,19.48,8.58,29.42c8.73,9.94,36.1,5.68,41.3,2.92,5.2-2.75,9.52-11.63,9.52-11.63l5.88-13.74s1.22-3.08,4.44-4.15c3.22-1.07,5.19-.15,11.76,5.22,6.58,5.37,6.72,12.21,10.08,18.17,4.43,3.06,14.86.64,14.86.64,0,0,12.05-2.47,17.22-10.09,5.17-7.62,5.54-22.48,5.54-22.48,0,0,1.05-7.85-4.97-11.61-1.47-.92-2.88-1.4-5.07-1.04Zm-60.01,25.2c-1.23,6-3.86,13.57-8.29,18.02-4.37,4.39-11.21,5.36-17.1,5.57-5.55.2-11.24-.12-16.39-2.2-2.7-1.09-5.27-2.71-6.94-5.09-1.98-2.82-2.51-6.39-2.71-9.83-.25-4.48-.02-9.02,1.05-13.38.3-1.2.7-2.47,1.67-3.25.92-.74,2.17-.89,3.35-.98,7.19-.57,14.43-.23,21.58.7,6.73.88,14.02,1.89,20.41,4.25.1.04.19.07.29.11,1.07.41,2.17.94,2.79,1.91.77,1.21.58,2.78.29,4.18Zm61.02,8.87c-3.21,3.75-17.69,10.71-25.45,7.57-2.27-.92-10.82-11.18-11.89-21.69-.09-.93-.04-1.9.32-2.77,1.04-2.47,4.1-3.57,6.34-4.62,2.91-1.37,5.89-2.59,8.94-3.62,6.09-2.06,12.44-3.39,18.86-3.76,6.44-.37,6.81,4.32,6.93,9.52.09,3.96-.46,15.19-4.05,19.38Z"/>
          <path class="cls-19" d="m52.7,78.73c-2.76,7.22-1.05,15.14,2.15,21.89,1.07,2.26,2.22,4.48,3.19,6.78.86,2.04,1.87,4.86,2.25,6.75h-24.53s-2.1-10.53,4.38-21.46c6.48-10.93,12.56-13.97,12.56-13.97Z"/>
          <path class="cls-3" d="m73.81,118.08c14.15-.83,28.42.29,42.27,3.33,5.95,1.3,14.98,4.34,20.73,1.68-9.26-2.18-21.25-3.45-30.65-4.97-4.75-.77-9.53-1.37-14.33-1.79-4.25-.38-8.8-1.02-13.07-.74-.85.06-1.69.3-2.48.61-.52.2-1.01.44-1.45.79-.18.14-.89,1.09-1.02,1.1Z"/>
          <path class="cls-3" d="m197.73,122.89c-.23-.15-.42-.41-.52-.69-.07-.22-.11-.45-.12-.68-.02-.33,0-.67,0-1,.04-4.32-2.66-8.05-5.94-10.02-1.43-.85-2.98-1.44-4.56-1.87-.33-.09-1.28-.19-2.15-.37-.82-.16-1.58-.39-1.64-.74.91-.12,1.82-.23,2.73-.32,11.05-1.2,13.05,6.9,12.2,15.69Z"/>
          <path class="cls-14" d="m182.7,74.32c-3.23,4.43-7.28,8.32-12.08,11.04l-.24-.42-.55-.95c.45-.27.9-.55,1.33-.84.93-.61,1.83-1.27,2.7-1.97.68-.56,1.35-1.14,1.99-1.74,1.86-1.77,3.55-3.72,5.05-5.81.09-.13.19-.26.28-.39,8.91-12.76,11.56-30.63,4.25-44.69-4.77-9.42-13.94-15.61-23.73-18.98-21.28-8.07-45.65-7.58-66.75.85-8.14,3.25-15.79,7.68-22.59,13.26-7.91,6.56-14.65,14.87-18.2,24.52-3.36,8.89-3.48,18.74-.31,27.65.09.25.18.49.28.74.13.35.27.7.41,1.05l-3.31,1.31-.54.21h-.01s-1.66.66-1.66.66c-5.13-12.78-3.67-26.77,2.4-38.68.71-1.4,1.49-2.78,2.33-4.12,1.15-1.83,2.42-3.61,3.79-5.3C82.06,1.42,127.29-7.6,162.88,6.51c10.4,3.76,20.06,10.66,24.97,20.81,7.47,15,4.49,33.7-5.15,47Z"/>
          <path class="cls-14" d="m142.86,58.18c1.22-1.28,2.71-2.38,4.22-3.39,5.57-3.5,11.68-6.69,18.12-8.14l4.94-.9c-4.13-.05-8.88-.22-12.99-.26-13.28.01-26.85.75-39.55,4.94-4.35,1.38-8.49,3.4-12.57,5.42,3.76-4.32,8.61-7.76,13.46-10.76l2.08-1.24c-19.62,2.36-39.27,8.21-55.5,19.79-4.76,3.58-9.64,7.38-13.16,12.25-.12.08-.25.15-.38.23l-.09.06s.05-.02.1,0c.04,0,.08.04.12.08-.21.3-.43.58-.63.89.07.07.33.24.66.21.16-.01.3-.05.42-.1,2.52-.2,4.42-2.13,6.68-3.11,1.86-1.02,5.02-2.47,6.93-3.35,14.12-6.19,29.38-9.88,44.8-10.52,18.31-.65,44.95,2.36,56.07,18.69l.39.66.47-.61c4.64-5.6,22.82-5.71,29.68-4.79-15.91-12.82-34.33-16.71-54.28-16.04Z"/>
          <path class="cls-16" d="m104.36,52.17c-1.82,1.5-7.69,5.86-9.23,7.62,2.8-1.38,5.62-2.77,8.52-3.94,2.97-4.05,8.36-8.02,10.74-9.63-.05,0-.39,0-.44.02-3.86,1.77-6.57,3.44-9.6,5.93Zm53-5.24c-6.01,1.56-11.72,4.57-16.95,7.86-1.51,1.01-3,2.11-4.22,3.39,1.59-.05,3.17-.08,4.74-.07l.89-.93c1.38-1.45,3.03-2.63,4.5-3.61,4.7-2.95,8.9-5.12,12.88-6.61-.63,0-1.24-.02-1.84-.03Zm7.03,14.1c8.34,2.22,16.26,5.86,23.66,11.33.46,0,.88,0,1.27,0,1.01,0,2.03.02,3,.06-8.19-5.7-17.43-9.47-27.93-11.38Z"/>
          <path class="cls-14" d="m47.25,138.61c2.77-9.11-2.72-23.15-12.74-23.85-9.95-.73-19.66,7.32-22.16,16.82-6.34,18.29,3.92,39.62,21.91,46.62,6.09,2.6,14.46,1.91,17.92-4.43.22-.55,1.14-1.11,1.16-.22.01.51-.41,1.18-.73,1.73-5.92,9.47-19.11,6.41-26.88,1.11-16.58-10.04-23.33-32.52-15.19-50.03,5.66-14.06,28.11-22.3,36.85-6.53,2.91,5.09,3.5,12.98,1.08,18.36-.16.44-.79,1-1.13.63l-.09-.2Z"/>
          <path class="cls-14" d="m141.87,129.35c-3.43-.68-6.49.44-7.73,3.84-1.17,3.09-2.15,6.5-3.6,9.51-4.67,11.07-9.37,17.61-22.05,19.16-3.41.43-6.84.44-10.23.4-6.78-.09-14.04-.51-19.86-4.44-8.81-6.06-11.32-17.49-11.38-27.58.07-3.45.07-6.94,1.34-10.23,3.1-7.13,12.2-6.29,18.64-5.96,13.58.72,27.07,3.19,40.18,6.69,14.55,4.23,25.36-4.72,38.44-9.15,6.45-2.22,13.13-3.72,19.91-4.4,11.83-1.29,13.28,8.11,11.98,17.58-.85,8.27-2.52,17.74-9.89,22.76-6.37,4.79-22.22,9.84-29.2,4.56,0,0,1.28-1.59,1.28-1.59,3.34,2.86,9.22,2.27,13.6,1.64,4.93-.74,9.7-2.48,13.92-5.18,5.75-3.78,7.98-10.72,8.95-17.23.63-4.94,1.55-10.09.52-15.01-1.1-5.53-5.93-7.33-11.08-6.62-6.66.76-13.28,2.34-19.6,4.62-13.44,4.85-24.02,13.82-39.24,9.8-13.13-3.25-26.44-5.18-39.92-5.78-3.19-.07-6.5-.46-9.62.11-7.67,1.33-7.29,6.92-7.54,13.38,0,9.25,2.09,19.95,10.09,25.55,5.31,3.62,12.12,4.06,18.51,4.25,3.37.09,6.7.13,9.95-.23,11.95-1.21,16.29-7.49,20.94-17.7.68-1.52,1.45-3.1,2.03-4.6.9-2.34,1.53-5.09,3.23-7.15,1.8-2.25,5.06-2.55,7.61-2,0,0-.16.99-.16.99h0Z"/>
          <path class="cls-14" d="m142.16,128.4c11.21,3.05,19.74,14.62,18.87,26.45-.17,3.08-1.08,6.31-3.05,8.79-5.91,7.4-16.19,6.86-24.36,4.68,9.57-.34,22.63-1.5,22.87-13.71.35-10.41-6.03-19.65-14.73-25.31,0,0,.41-.91.41-.91h0Z"/>
          <path class="cls-11" d="m153.36,158.27c.82-11.38-5.07-22.58-13.69-28.01,8.91,3.73,15.57,12.53,15.6,22.04.06,2.8-.53,5.79-2.14,8.25.11-.76.19-1.52.23-2.28Z"/>
          <polygon class="cls-14" points="40.14 113.66 76.98 113.8 76.97 116.17 40.13 114.66 40.14 113.66 40.14 113.66"/>
          <polygon class="cls-14" points="47.55 122.46 67.81 124.84 67.42 127.01 47.38 123.44 47.55 122.46 47.55 122.46"/>
          <path class="cls-14" d="m124.77,125.06c4.77,1.29,5.46,4.91,4.08,9.17-.81,3.01-1.85,5.96-3.19,8.78-2.6,5.69-7,11.08-13.24,12.71-9.85,2.66-28.68,2.88-34.72-6.86-3.08-5.56-2.51-12.23-2-18.29.35-2.33.65-4.63,1.58-6.83.65-1.61,2.54-2.51,4.17-2.6,8.36-.93,16.85-.54,25.17.45,6.05.66,12.18,1.47,18.16,3.47h0Zm-.68,1.84c-5.67-2.07-11.69-3.06-17.68-3.88-6-.86-12.03-1.4-18.09-1.32-2.87.19-6.22-.16-8.87.9-1.28.67-1.77,2.21-2.09,3.64-.35,1.46-.61,2.95-.78,4.45-.45,5.83-.86,12.37,2.01,17.65,5.82,9.3,24.08,9.01,33.51,6.39,6.01-1.6,9.96-6.74,12.23-12.28,1.18-2.77,2.08-5.67,2.75-8.61.87-3.41.81-5.76-2.99-6.93h0Z"/>
          <path class="cls-14" d="m192.36,122.36c-.04-6.58-1.21-10.22-8.66-9.12-10.43.98-20.73,4.26-29.87,9.34-2.51,1.56-2.69,4.12-2.11,6.75.46,2.57,1.31,5.07,2.4,7.45,1.64,3.57,3.77,6.93,6.36,9.88.86.9,1.75,1.99,2.9,2.45,4.99,1.65,10.47.08,15.23-1.72,3.54-1.51,7.32-3.18,9.93-6.08,2.3-3.18,2.86-7.29,3.39-11.1.3-2.61.46-5.24.42-7.86h0Zm1.83-.04c-.02,2.75-.25,5.41-.62,8.1-.66,4.04-1.35,8.35-3.95,11.76-2.9,3.12-6.78,4.71-10.6,6.24-5.02,1.75-10.65,3.22-15.88,1.36-2.45-1.28-3.9-3.75-5.5-5.89-1.49-2.19-2.93-4.43-4.09-6.83-1.15-2.4-2.06-4.94-2.58-7.58-.73-2.99-.39-5.84,2.34-7.63,9.25-5.38,19.61-8.86,30.26-10.05,8.15-1.38,10.63,3.18,10.61,10.53h0Z"/>
          <path class="cls-14" d="m47.76,179.03c14.61,19.02,35.63,33.68,58.37,41.27,36.2,11.3,59.94-14.74,70.87-46.57,1.33-3.78,2.48-7.63,3.22-11.49.59-3.34,1.25-7.73-.23-10.62,0,0,3.72-2.18,3.72-2.18,3.63,7.16-.48,18.54-2.85,25.67-11.81,33.59-37.7,60.45-75.66,48.27-23.4-8.05-44.54-23.05-59.49-42.82,0,0,2.06-1.52,2.06-1.52h0Z"/>
          <path class="cls-14" d="m36.07,140.68c-2.25-3.18-6.81-8.28-10.68-4.69-2.57,2.69-2.19,6.73-1.73,10.12,1,6.07,3.92,12.96,10.25,14.77,5.74,1.53,7.01-3.97,4.59-8.12-.72-1.38-4.35-6.77-5.75-3.9-.67,1.82.27,4.74,1.2,6.57.11.29.37.92,0,.89-2.02-1.91-3.72-8.29-1.06-9.4,4.37-1,8.45,6.49,8.57,10.1.2,7.32-8.32,7.41-12.79,3.68-6.23-5.09-10.3-19.84-3.85-25.96,4.34-3.35,9.85,1.88,11.31,5.96l-.07-.02Z"/>
          <g>
            <path class="cls-14" d="m48.23,137.38c4.84.92,4.79,8.38,4.79,8.38,2.22-2.63,4.58-5.48,5.87-8.7,1.48-3.7,1.71-8.1,2.11-12.03l-13.54-2.08s1.93,5.84,1.9,7.67-1.14,6.76-1.14,6.76Z"/>
            <path class="cls-14" d="m52.51,147.14v-1.38c0-.07-.02-7.06-4.38-7.89l-.51-.1.11-.5s1.1-4.91,1.12-6.66c.02-1.43-1.35-5.9-1.87-7.5l-.26-.78,14.82,2.28-.05.47c-.06.54-.11,1.09-.16,1.65-.34,3.57-.68,7.26-1.99,10.52-1.35,3.37-3.9,6.4-5.95,8.84l-.89,1.05Zm-3.69-10.13c3.51,1.02,4.4,5.29,4.62,7.47,1.83-2.2,3.86-4.8,4.98-7.6,1.25-3.12,1.59-6.74,1.92-10.24.04-.4.07-.79.11-1.18l-12.27-1.89c.53,1.67,1.7,5.56,1.68,7.06-.02,1.53-.76,5.09-1.04,6.39Z"/>
          </g>
          <path class="cls-14" d="m16.16,123.97c-.33-.42-.66-.85-.97-1.28-.01-.01-.02-.03-.03-.04-.43-.58-.84-1.17-1.23-1.76-4.65-6.93-7.64-14.98-8.48-23.25-3.38-32.83,26.95-52.16,54.51-61.28l-.86-2.5-.86-2.48c-14.76,5.14-29.52,12.08-41.03,23.03C-3.46,73.4-5.45,103.67,10.93,125.82c.47.63.95,1.25,1.44,1.86l.24-.19,2.5-2.01,1.05-1.51Z"/>
          <path class="cls-14" d="m100.69,172.24c-.2.4-.64.73-1.01,1.04-1.81,1.52-3.38,3.2-4.68,5.17s-2.34,4.08-3.16,6.28c-.08.2-.34.93-.68.68-.09-.06-.13-.17-.15-.28-.12-.61-.03-1.18.13-1.78.17-.62.35-1.24.56-1.85.38-1.12.84-2.21,1.39-3.26,1.09-2.09,2.49-4.02,4.17-5.68.34-.34.69-.67,1.06-.98.46-.38,1.06-.78,1.64-.66.59.1.98.67.79,1.18l-.06.14Z"/>
          <path class="cls-14" d="m94.62,176.94c19.05,11.05,43.37,12.95,64.14,4.73.67-.29,1.1.65.4.93-20.77,8.48-45.79,8.05-65.95-2.91-.35-.23.09-.72.49-1.48.41-.73.75-1.36.77-1.28h.15Z"/>
          <path class="cls-19" d="m73.98,114.58c8.25-4.32,17.26-6.52,26.36-8.41,4.31-.89,8.79-1.64,13.2-1.26,2.49.21,5.76.94,7.33,3.16,2.34,3.31-.67,6.24-4.05,6.57-5.7.55-8.39-.3-16.88,2.22"/>
          <path class="cls-14" d="m52.32,78.73c-8.87,7.75-18.49,21.73-16.28,33.99,0,0-.98.21-.98.21-3.12-12.83,6.04-28.07,14.98-36.88,0,0,2.28,2.68,2.28,2.68h0Z"/>
          <path class="cls-14" d="m138.64,195.49c-.85-.93-2.65-.68-3.85-.68-1.42,0-2.85-.04-4.27-.07-3.39-.07-6.77-.43-10.15-.49-.32,0-.14.22.06.28,1.43.42,2.78.73,4.27.95,1.35.2,2.7.35,4.05.56,1.44.22,2.9.33,4.35.43,1.86.13,3.72.35,5.41-.38.31-.13.35-.38.14-.6Z"/>
          <path class="cls-14" d="m133.62,196.9c-.22,0-.43.11-.57.27-.48.56-1.05,1.04-1.62,1.52-.38.31-.77.59-1.16.85-.03-.72,0-1.44.12-2.16.09-.54-.67-.41-.93-.2-.65.52-1.27,1.07-1.87,1.63.08-.57.21-1.14.41-1.68.22-.59-.57-.63-.91-.32-.23.22-.44.45-.65.68-.01-.13-.02-.27-.06-.4-.1-.37-.8-.12-.87.16-.16.66-.24,1.34-.49,1.98-.25.65.71.6.99.22.13-.18.28-.36.42-.53-.07.46-.11.92-.11,1.39,0,.2.28.28.43.28.26,0,.46-.14.63-.32.55-.58,1.14-1.12,1.74-1.65-.04.65-.02,1.3.05,1.94.05.44.68.26.9.1.91-.64,1.73-1.39,2.55-2.14-.38,1.41-.63,2.85-.88,4.29-.02.14.36.18.41.05.7-1.87,1.41-3.73,1.82-5.69.04-.19-.23-.27-.36-.27Z"/>
          <path class="cls-14" d="m152.5,212.3c-2.64,2.75-5.48,5.12-8.4,7.37-.25-.58-.32-1.28-.2-2.11,0-2.73-3.53-1.57-4.57-.54-1.66,1.67-3.24,3.4-4.77,5.19-1.04-2.05-2.7-3.32-5.32-2.66-1.78.45-2.75,1.74-4.12,3.02-.11.11-.21.2-.3.29-.02-.1-.05-.2-.1-.31-.27-.62-.29-1.69-.6-2.42-.42-.98-1.4-1.08-2.23-1.03-1.89.1-3.44,1.28-4.85,2.74-.33-.84-.65-1.68-.98-2.52-.6-1.54-2.65-1.13-3.68-.46-1.07.7-2.09,1.45-3.08,2.24-.17-.98-.35-1.96-.52-2.94-.5-2.8-3.56-1.62-4.84-.12-.79.92-1.58,1.85-2.37,2.77-.48-1.73-.96-3.47-1.45-5.2-.6-2.16-3.48-.81-4.44.24-.94,1.03-1.83,1.9-2.76,2.71-.62-2.79-1.12-5.6-1.52-8.47-.28-2.05-3.36-.93-4.15-.02-.92,1.05-1.84,2.1-2.76,3.15.07-.95.15-1.89.27-2.85.23-1.82-1.97-1.72-2.92-1.27-.07.03-.13.07-.2.11.35-1.39.64-2.8.81-4.27.14-1.19-2.04-1.24-2.45-.4-1.39,2.79-2.39,5.63-3.4,8.62-.63,1.85,2.45,1.62,3.16,1.04.06-.06.12-.1.19-.16-.25,1.78-.39,3.55-.4,5.45,0,2.29,2.94,1.86,3.99.7,1.19-1.31,2.38-2.63,3.57-3.94.41,2.55.9,5.07,1.48,7.58.43,1.82,2.86,1.01,3.79.37,1.23-.84,2.39-1.74,3.5-2.7.52,1.99,1.04,3.98,1.56,5.96.59,2.26,3.65.69,4.58-.37.67-.76,1.34-1.52,2-2.29.12.77.25,1.53.37,2.3.39,2.41,3.11,1.93,4.4.65.91-.91,1.84-1.73,2.8-2.49.45,1.2.89,2.4,1.34,3.6.72,1.92,3.45.91,4.43-.16.47-.51.93-1.02,1.4-1.52.02.41.1.82.32,1.21.79,1.41,1.81,1.8,3.3,1.77,1.36-.03,2.69-.75,3.83-1.6,2.27-1.7,3.15-4.59,3.93.54.45,3.03,3.94,1.44,5.12-.13,1.29-1.72,2.63-3.34,4.01-4.91.4.61.91,1.16,1.54,1.65,1.25.97,2.86.47,4.02-.64,3.67-3.51,6.58-7.51,9.38-11.95.52-.83-1.28-1.28-1.71-.82Z"/>
          <path class="cls-14" d="m87.52,171.3c-.1-.13-.32-.14-.46-.09-1.31.42-2.32,1.67-2.77,2.93-.1.28-.35.86-.06,1.08.17.13.4.09.58-.02-.02.04-.01.05.03,0,.01-.01.02-.03.04-.04.07-.05.13-.11.17-.17.04-.06.05-.11.07-.18,0,0,0,0,0-.01,0-.01.01-.02.02-.04.09-.3.15-.61.28-.9.11-.26.25-.5.42-.74.43-.61,1-1.04,1.61-1.45.12-.08.18-.26.09-.39Z"/>
          <path class="cls-9" d="m72.16,160.67c-.5,0-.95.28-1.02.89-.06.5.29,1.16.79,1.16s.95-.28,1.02-.89c.06-.5-.29-1.16-.79-1.16Z"/>
          <path class="cls-7" d="m107.71,134.78c-2.48.04-4.95.65-7.37,1.14-2.28.46-4.52.94-6.75,1.63-2.09.64-4.14,1.4-6.2,2.1-2.15.73-4.7,1.57-6.37,3.17-.17.16-.01.4.2.37,2.4-.34,4.8-1.82,7-2.8,2.28-1.02,4.69-1.78,7.08-2.5,2.01-.6,4.01-1.28,6.06-1.74,2.11-.47,4.28-.75,6.36-1.32.03,0,.03-.06,0-.06Z"/>
          <path class="cls-7" d="m159.69,133.67c-1.34.02-2.64.22-3.96.46-1.18.21-2.32.51-3.32,1.19-.2.14,0,.49.23.37,1.04-.56,2.19-.84,3.34-1.04.61-.1,1.23-.18,1.84-.29.65-.12,1.27-.28,1.9-.48.12-.04.09-.22-.04-.21Z"/>
          <path class="cls-7" d="m174.7,132.98c-1-.43-2.13-.45-3.2-.5-1.16-.05-2.31-.04-3.46.08-.1,0-.1.16,0,.16,1.11-.09,2.23-.11,3.34-.03,1.11.09,2.19.39,3.3.43.09,0,.09-.11.02-.14Z"/>
          <path class="cls-7" d="m120.72,134.98c-.28-.07-.53-.17-.83-.19-.29-.02-.57-.03-.85-.03-.25,0-.5,0-.75.01-.12,0-.25,0-.38,0-.18,0-.28.04-.41.13-.12.08-.12.23,0,.31.08.06.15.11.26.12.07,0,.15,0,.22,0,.14,0,.28,0,.42,0,.26,0,.52,0,.77.01.27,0,.56,0,.83-.05.25-.04.48-.12.73-.18.12-.03.1-.14-.01-.16Z"/>
          <path class="cls-7" d="m121.84,133.71s-.02-.12-.05-.16c-.03-.04-.08-.07-.11-.09-.06-.04-.17.01-.18.08,0,.03-.01.06-.01.08,0,.03,0,.06,0,.09,0,0,0,.01,0,.02,0-.03,0-.03,0-.01,0,0,0,.01,0,.02,0,.03,0,.05.01.08,0,.02,0,.03,0,.05,0,0,0,0,0,.01,0,.04,0,.08,0,.12,0,.02,0,.05,0,.07,0,.03,0,.05,0,.08,0,.02,0,.04,0,.06,0,.02,0,.03.01.05.01.05.07.08.12.06.04-.02.07-.04.1-.07.02-.03.05-.07.07-.11.02-.03.03-.06.04-.09.01-.03.02-.06.03-.08s0-.06,0-.09c0-.06,0-.13-.02-.19Z"/>
          <path class="cls-7" d="m107.75,139.96c-3.14,1.81-6.33,3.58-9.58,4.77-1.55.56-3.12,1-4.7,1.3-2,.38-4.06.21-6.04.75-.34.09-.29.96.02,1.06,1.7.54,3.61.23,5.33-.04,1.77-.27,3.52-.72,5.26-1.32,3.5-1.22,6.79-3.08,9.86-6.06.16-.15.02-.54-.14-.45Z"/>
          <path class="cls-7" d="m167.54,137.12c-.71-.06-1.41.06-2.11.17-.97.15-1.94.25-2.91.35-1.89.19-3.79.3-5.68.4-.17,0-.19.29-.01.31,1.85.2,3.67.19,5.52.01.92-.09,1.83-.23,2.74-.39.86-.15,1.73-.29,2.49-.72.06-.04.03-.13-.03-.13Z"/>
          <path class="cls-16" d="m119.75,108.33c-.61-.75-1.4-1.28-2.29-1.67-.94-.41-1.94-.62-2.94-.83-1.23-.25-2.43-.52-3.7-.47-.04,0-.04.06,0,.06,1.12.01,2.22.24,3.3.55.97.28,1.97.63,2.88,1.07.83.4,1.59.94,2.13,1.7.25.34.44.71.59,1.11.16.42.18.88.48,1.23.13.15.44.11.51-.08.35-.85-.45-2.04-.97-2.67Z"/>
          <path class="cls-16" d="m173.42,107.57c-1.09-.62-2.49-.71-3.72-.9-1.3-.19-2.61-.33-3.92-.47-2.63-.27-5.29-.54-7.94-.47-.13,0-.12.19,0,.2,2.68.27,5.36.38,8.04.71,1.27.16,2.54.34,3.79.56,1.21.21,2.37.68,3.58.83.25.03.38-.35.16-.47Z"/>
          <path class="cls-8" d="m181.16,115.26c-.05-.33,1.27-.68,1.85-.79,4.1-1.04,7.83,1.25,7.85,5.56.01,7.19-.46,15.01-4.91,21.05-.82,1.12-3.34,4.06-2.59.69,1.43-6.45,2.07-13.21,1.65-19.77-.09-2.29-1.15-4.79-3.13-5.97-.41-.3-.68-.53-.71-.72v-.06Z"/>
          <path class="cls-8" d="m118.97,127.71c1.79.6,3.46,1.75,4.21,3.4.55,1.21.57,2.57.45,3.89-.36,4.05-1.96,8-4.54,11.24-2.58,3.24-6.15,5.77-10.15,7.19,3.29-3.1,5.91-6.84,7.66-10.92,1.21-2.82,2-5.93,1.33-8.91-.31-1.36-.93-2.65-1.78-3.77s-2.09-1.74-2.99-2.72c1.19-.82,4.59.18,5.83.59Z"/>
          <path class="cls-8" d="m92.49,154.12c.52.07,1.24-.04,1.27-.56.02-.39-.39-.63-.75-.79-1.05-.46-11.56-5.96-12.28-4.05-.34.89,4.28,3.08,4.98,3.4,2.12.99,4.45,1.74,6.78,2Z"/>
          <path class="cls-8" d="m172.88,148.22c-.35-.75-1.36-.82-2.19-.82-1.89.01-3.76-.15-5.63-.42-.86-.13-2.18-.56-2.96-.1.64,1.27,3.44,1.74,4.73,1.92,2.02.29,4.12.1,6.04-.58Z"/>
          <path class="cls-6" d="m59.68,118.77c-.31-.02-.71.01-.82.31-.14.36.31.66.68.78.68.22,4.89,1.35,4.32-.24-.37-1.05-3.37-.79-4.18-.84Z"/>
        </g>
      </g>
    </g>
  </g>
</svg>