<?xml version="1.0" encoding="UTF-8"?>
<svg id="Layer_2" data-name="Layer 2" xmlns="http://www.w3.org/2000/svg" xmlns:xlink="http://www.w3.org/1999/xlink" viewBox="0 0 750 500">
  <defs>
    <style>
      .cls-1 {
        fill: url(#Unnamed_Pattern_4);
      }

      .cls-1, .cls-2, .cls-3, .cls-4 {
        stroke-width: 0px;
      }

      .cls-2 {
        fill: none;
      }

      .cls-3 {
        fill: #7f7f7f;
      }

      .cls-4 {
        fill: #eaf0e2;
      }
    </style>
    <pattern id="Unnamed_Pattern_4" data-name="Unnamed Pattern 4" x="0" y="0" width="194.22" height="194.22" patternTransform="translate(-313.96 -770.32)" patternUnits="userSpaceOnUse" viewBox="0 0 194.22 194.22">
      <g>
        <rect class="cls-2" x="0" width="194.22" height="194.22"/>
        <g>
          <rect class="cls-3" x="0" width="194.22" height="194.22"/>
          <path class="cls-4" d="m27.74,144.65c-1.22-.91-1.49-2.85-3.18-3.13-1.74-.29-3.51,1.36-4.66,2.41-1.79,1.66-3.73,6.06-.11,6.99-.48,1.14-.42,2.3.84,3.24.05.04.11.05.17.05-.03.29-.02.59.05.88.31,1.38,1.73,2.14,2.9,1.24.02-.02.04-.04.05-.06,6.77,8.19,13.26,16.51,19.83,24.86.07.08.14.13.22.15-.03.24.21.4.4.32,1.21,1.63,3.37,2.75,4.99,3.92.11.08.23.17.34.26,0,0,0,.02,0,.03-.01.25.23.36.4.28,1.06.86,2.24,1.86,3.56,1.88.31,0,.69-.23.6-.6-.57-2.42-1.18-4.82-1.87-7.21-.25-.85-.41-2.83-1.25-3.55.05-.13.06-.29-.05-.45-6-8.86-12.47-17.53-18.95-26.04-.1-.14-.23-.2-.36-.21-.01-.09-.05-.16-.1-.23.02-.03.04-.06.05-.1.47-1.6-.41-2.96-2.07-3.16,0-.02,0-.04-.01-.06-.37-.99-.96-1.45-1.65-1.56-.03-.05-.07-.1-.13-.15Zm-3.26,10.76c-.06-.06-.13-.11-.2-.13.6-.8,1.26-1.53,1.99-2.16,0,0,0,.01,0,.02,6.49,8.82,12.63,18.31,19.87,26.53-.75-.03-1.47.28-1.93.88-5.49-8.92-12.47-17.62-19.74-25.13Zm2.46-2.77s-.03-.02-.04-.04c.35-.27.72-.51,1.1-.74,6.72,8.44,13.02,17.21,19.76,25.62-.78.15-1.41.77-1.57,1.56-5.69-9.19-12.83-17.73-19.26-26.41Zm23.15,24.66c.84.33,1.37,3.98,1.61,4.84.08.29.16.58.24.88-.15.01-.3.06-.44.13-.33.17-.55.47-.63.8-.4.19-.75.5-.98.88-.67-.55-1.29-1.08-1.78-1.44-1.15-.82-2.21-1.77-3.53-2.22.46-.65,1.29-.88,2.04-.54.33.15.75-.23.58-.57-.52-1.04.39-2.14,1.45-1.57,0,0,0,.01,0,.02.07.26.4.23.53.06.28-.13.44-.5.12-.73.11-.29.35-.51.64-.63.04.03.09.06.14.09Zm-18.96-26.51c6.04,8.62,12.24,17.26,18.75,25.54-.57.16-1.02.63-1.2,1.2-.05-.02-.1-.02-.15-.03-5.95-9.08-12.91-17.64-19.73-26.07.7-.34,1.46-.62,2.26-.81.02.06.04.11.07.17Zm-.39-1.57c-.04.14-.02.26.03.36-3.18.74-6.01,2.75-7.43,5.74-.08.17,0,.34.14.43-.01,0-.03,0-.04.01-1.52-.36-2.03-1.02-1.54-1.98.16-.66.47-1.26.93-1.79.6-.81,1.37-1.5,2.13-2.16.56-.48,1.14-.97,1.74-1.39.17-.12.34-.25.52-.37,1.24-1.04,2.42-.66,3.51,1.15Zm-2.12-2.78c-1.95.31-3.84,2.22-5.11,3.44-.95.91-2.22,2.28-2.61,3.73-1.42-2.29.69-4.14,2.35-5.57,1.4-1.21,3.72-3.51,5.37-1.59Zm-5.89.89c-.85.74-2.08,1.93-2.74,3.19-3.17-2.26-.2-5.59,2.01-7.14,1.3-.91,2.97-.95,3.88.46.25.39.49.74.78,1.06-1.47.4-3.06,1.68-3.93,2.44Z"/>
          <path class="cls-4" d="m116.2,162.96c.13-.12.17-.26.15-.39,1.02-.93,1.57-2.49,2.1-3.68.93-2.08,1.9-4.41,2.35-6.66.71-3.53-2.18-4.17-4.97-5.62l-15.48-8.05c-2.24-1.17-6.61-4.73-9.39-3.47-.07.03-.14.07-.21.11-4.36.51-7.5,4.42-9.27,8.24-2.4,5.2.77,7.81,4.96,10.57,5.43,3.58,11.18,6.65,17.18,9.17,4.16,1.76,8.9,3.22,12.59-.24Zm-5.29-17.63c2.76,1.43,8.57,3.07,8.77,6.68.12,2.23-3.11,10.35-5.99,10.2-1.49-.08-3.56-1.56-4.89-2.22-1.46-.73-2.91-1.47-4.35-2.22-1.12-.59-2.24-1.19-3.36-1.79.6-.5,1.1-1.15,1.48-2.02,1.54-3.51,3.13-7.08,4.31-10.74,1.34.7,2.69,1.4,4.03,2.1Zm-17.38-9.02c1.34.25,2.91,1.49,4.11,2.12l4.42,2.3,4.06,2.11c-1.16,2.76-2.4,5.49-3.57,8.25-.7,1.64-1.22,3.18-2.63,4.28-1.36-.74-2.72-1.49-4.06-2.26-2.25-1.28-9.57-4.27-9.49-7.35.14-.03.28-.13.34-.3.95-2.99,2.57-9.94,6.82-9.14Zm-11.62,8.51c.95-3.57,3.92-6.88,7.37-8.38-1.05,1.27-1.82,3.1-2.38,4.88-.07-.01-.13.01-.16.09-.21.54-.28,1.13-.44,1.69-.08.28-.17.54-.27.81-.25.33-.4.68-.48,1.08-.15.06-.26.18-.29.4-.05.42-.02.82.06,1.19-1.17.43-2.35.81-3.58.99-.15-.81-.11-1.71.17-2.76Zm9.05,10.87c-1.98-1.17-3.95-2.39-5.83-3.73-1.47-1.05-2.62-2.15-3.15-3.54,1.26-.21,2.45-.61,3.49-1.33.94,2.55,4.55,3.96,6.72,5.23,2.18,1.28,4.37,2.52,6.58,3.73-1.41.6-3.37.82-4.76,1.22-.06.02-.1.05-.15.08-.98-.54-1.95-1.09-2.9-1.66Zm10.94,5.67c-2.25-1-4.46-2.09-6.63-3.25,1.68-.4,3.34-.69,4.71-1.4,2.03,1.1,4.08,2.18,6.13,3.23,1.84.94,5.03,3.27,7.67,3.46-3.72,1.82-8.36-.46-11.89-2.03Z"/>
          <path class="cls-4" d="m214.42,101.25c.09-.42-.32-.9-.77-.6-5.02,3.44-9.52,7.53-13.3,12.31-2.86,3.63-6.84,8.4-6.4,13.32-1.56-.14-3.18.19-4.26,1.04-1.02.8-1.43,1.95-1.59,3.19-.41,3.2-.69,5.81-2.39,8.67-.08.14-.09.28-.06.4-.02,0-.03,0-.05,0-.52.04-.51.74,0,.8,3.64.4,8.41.79,11.03-2.33,1.84-2.19,3.25-7.07,1.5-9.64-.02-.02-.03-.04-.05-.06,11.67-4.48,10.89-17.03,16.65-26.31.22-.35,0-.68-.31-.79Zm-19.15,36.58c-2.21,2.04-5.54,1.69-8.43,1.71,1.16-1.97,1.95-4.08,2.22-6.37.2-1.64,0-3.37,1.18-4.65,1.2-1.29,3.81-1.45,5.34-.58,3.3,1.89,2.18,7.58-.31,9.87Zm2.36-10.01c-.75-.74-1.81-1.22-2.94-1.44.24-3.46,2.03-6.83,4.2-9.84,2.9.54,5.23,1.59,6.88,4.23,0,.02.02.02.03.04-.47.75-1,1.47-1.59,2.13-1.88,2.09-4.45,3.16-6.58,4.89Zm10.71-12.4c-.55,1.51-1.18,3.02-1.97,4.44-1.49-2.27-4.22-4.05-6.98-4,1.12-1.5,2.31-2.9,3.42-4.18,3.12-3.59,6.65-6.73,10.52-9.48-2.39,4.13-3.36,8.76-4.98,13.22Z"/>
          <g>
            <path class="cls-4" d="m166.91,128.35c-.08-.11-.19-.15-.3-.16-3.36-5.15-9.75-8.02-16.03-7.7-3.56.18-7.87,1.27-9.65,4.7-2.3,4.43,1.53,9.63-1.21,13.89-2.8,1.25-5.92,2.92-6.49,6.23-.51,2.98,1.16,5.81,3.29,7.82,5.24,6.44,15.31,7.93,22.62,3.72,9.38-5.4,14.72-19.21,7.75-28.49Zm-31.92,15.53c1.15-2.02,3.64-3.07,5.66-3.97.41-.18.35-.62.09-.87,1.5-2.08,1.2-4.5.88-7.05-.27-2.18-.69-4.61.53-6.61,1.24-2.03,3.74-3,5.96-3.43,10.83-2.13,21.42,6.12,19.46,17.5-1.4,8.13-7.66,15.49-16.02,16.83-4.86.78-10.28-.43-13.99-3.77-.97-.88-1.89-2.01-2.5-3.25.02-.02.04-.04.04-.07.03-.19.03-.34,0-.53-.03-.15-.25-.16-.31-.03-.59-1.53-.67-3.18.22-4.74Zm24.15,12.02c-5.85,3.63-12.91,3.41-18.29.08,6.2,2.86,13.89,1.93,19.37-2.22,5.65-4.28,9.53-11.98,8.69-19.18,1.76,7.97-2.83,17.01-9.76,21.31Z"/>
            <path class="cls-4" d="m148.94,138.18c-.28-1.29-1.57-2.29-2.86-2.23-.01,0-.02-.02-.04-.03-1.98-.52-3.04,1.58-3.14,3.23-.05.84,0,1.63.79,2.08.78.45,1.75.6,2.63.48,1.73-.24,2.99-1.77,2.62-3.53Zm-2.68,2.58c-.5.08-1.01.04-1.5-.1-.72-.21-.96-.57-.95-1.34,0-1.01.31-2.11,1.1-2.64.04.17.17.31.37.29.58-.07,1.18-.06,1.69.15-.89-.09-1.86.26-2.4.96-.61.8-.6,2.76.76,2.67.2-.01.25-.25.1-.36-.66-.49-.7-1.46-.1-2.02.74-.7,1.75-.56,2.55-.08.03.02.07.03.1.04.29,1.2-.53,2.24-1.72,2.44Z"/>
            <path class="cls-4" d="m151.2,124.16c-.23-.03-.37.14-.43.33-1.26-.09-2.54.81-2.86,2.1-.41,1.63.71,3.43,2.33,3.83,1.73.43,3.62-.86,3.89-2.61.29-1.84-1.18-3.42-2.93-3.65Zm-.63,5.38c-1.11-.22-1.96-1.37-1.83-2.5.14-1.17,1.17-1.93,2.28-2,.02,0,.04.02.06.02,1.15.18,2.17,1.1,2.16,2.33-.01,1.31-1.4,2.4-2.67,2.15Z"/>
            <path class="cls-4" d="m163.38,132.36c-.48-1.99-2.56-2.97-4.4-2.12-.11.05-.17.14-.2.24-.95.48-1.6,1.6-1.51,2.73.14,1.75,1.68,3.15,3.46,2.88,1.77-.27,3.08-1.94,2.64-3.73Zm-2.78,2.76c-1.17.18-2.15-.67-2.37-1.8-.2-1.01.37-1.86,1.19-2.27,3.02-1.06,4.3,3.59,1.18,4.07Z"/>
            <path class="cls-4" d="m163.39,141.89c-.54-1.45-2.69-2.43-4.02-1.42,0,0,0,0-.01.01-.88.47-1.52,1.41-1.51,2.44,0,1.72,1.8,3.16,3.49,2.77,1.61-.38,2.64-2.24,2.06-3.79Zm-2.02,2.79c-1.11.46-2.45-.41-2.63-1.57-.12-.78.24-1.43.79-1.88.05,0,.1,0,.16-.01.97-.25,2.06-.24,2.66.72.62.97.02,2.33-.99,2.74Z"/>
            <path class="cls-4" d="m154.9,149.29c-.38-1.13-1.56-1.76-2.66-1.6-1.4-.59-2.82,1.19-3.04,2.47-.33,1.9,1.43,3.08,3.18,2.88,1.78-.21,3.11-1.97,2.52-3.74Zm-2.45,2.83c-1.1.23-2.5-.33-2.48-1.61.01-.66.42-1.58,1.03-2.07,0,.29.35.58.66.4.86-.49,2.02-.27,2.37.75.4,1.16-.45,2.29-1.58,2.53Z"/>
          </g>
          <g>
            <path class="cls-4" d="m65.44,122.06c-.01-.22-.16-.34-.32-.37.03-.15,0-.31-.06-.45.13-.14.19-.34.08-.56-.97-1.96-2-4.96-3.89-6.27-.6-.41-1.42-.69-2.3-.85.09-.92.15-1.84.23-2.75.04-.56.22-1.29-.19-1.77-.65-.75-2.46-.78-3.34-.67-2.67.34-2.89,3.25-1.87,5.25-3.45.83-6.57,3.74-6.89,7.35-.02.23.34.33.44.12,1.51-3.17,3.54-5.9,7.26-6.49,2.42-.38,5.38.03,7.04,1.95,1.05,1.21,1.72,3.06,2.56,4.46-5.55.66-10.99.62-16.55-.02-.19-.02-.31.12-.33.29-.08.06-.15.15-.16.29-.62,9.5-.49,19.53.42,29.01.02.17.1.3.2.39-.13.18-.14.47.1.59,5.3,2.62,11.91,2.81,17.26.18.12-.06.19-.15.22-.26.28,0,.56-.17.55-.53-.24-9.61.02-19.28-.45-28.88Zm-11-8.58s-.06.01-.09.02c-.25-1.72-.83-4.14,1.69-4.25.46-.02.93.05,1.38.14.55.11.91.22.87.84-.07,1.06-.18,2.12-.25,3.19-1.3-.14-2.64-.09-3.6.06Zm-6.09,14.94c2.71,2.1,7.06,2.03,10.29,1.21-.13,4.35-.44,8.75-.19,13.1-1.63.13-3.25.2-4.88.02-1.77-.19-3.46-.81-5.22-.98,0-4.45.13-8.92,0-13.35Zm16.41,22.43c-5.62,1.88-10.61,2.04-16.21.11.09-.09.14-.21.12-.38-.24-2.74-.31-5.49-.32-8.25,2.91,1.88,7.47,1.91,10.75,1.37.49-.08.46-.8.08-.97.52-4.39.46-8.87.59-13.28,0-.26-.13-.42-.31-.49-.03-.3-.28-.58-.66-.49-1.7.42-3.39.65-5.15.54-1.78-.11-3.36-.74-5.1-.98-.07-.01-.15.02-.21.07-.07-2.13-.2-4.25-.44-6.35,5.53,1.1,11.17,1.17,16.75.35-.66,9.5-.2,19.24.15,28.75-.01,0-.02,0-.03,0Z"/>
            <path class="cls-4" d="m54.88,110.71c-.14.09-.22.18-.29.33-.07.16,0,.37.21.36.16,0,.28-.03.41-.13.34-.24.03-.8-.33-.57Z"/>
            <path class="cls-4" d="m51.91,108.08c-2.39-1.25-4.83-2.43-7.38-3.34-.24-.08-.4.3-.17.41,1.9.9,3.78,1.8,5.63,2.78-2.06-.02-4.08.26-6.09.81-.47.13-.36.8.11.83,1.77.11,3.52.24,5.24.57-2.24.58-4.41,1.3-6.4,2.53-.45.28-.14.91.35.82,1.51-.27,3.01-.58,4.5-.93-1.39.93-2.73,2.06-3.07,3.2-.08.28.15.6.44.58.04,0,.08,0,.11,0,.24-.01.46-.2.46-.46,0-.03,0-.06,0-.08,0-.01,0-.02,0-.03.45-.8,1.76-1.67,2.35-2.13.9-.71,1.84-1.32,2.84-1.88.45-.26.15-.97-.35-.83-1.3.36-2.61.68-3.92.98,1.52-.56,3.1-.97,4.7-1.35.42-.1.41-.73,0-.84-1.39-.38-2.8-.61-4.21-.75,1.54-.21,3.09-.25,4.68-.14.4.03.55-.57.2-.75Z"/>
          </g>
          <path class="cls-4" d="m56.47,14.53c-5.26-4.48-13.18-5.6-19.32-2.31-6.61,3.54-11.33,12.48-9.02,19.91.05.17.23.24.38.22,2.01,6.61,7.91,11.76,14.87,12.45,7.19.71,14.6-3.5,17.52-10.13,2.99-6.78,1.25-15.3-4.43-20.14Zm.71,2.4c-2.23,2.86-3.91,6.09-5.44,9.38-2.38-5.15-4.97-10.37-8.57-14.79,5.21-.57,10.54,1.53,14.02,5.4Zm-8.88,4.74c.94,1.75,1.85,3.52,2.7,5.34.07.15.18.22.3.24-.94,2.05-1.83,4.12-2.79,6.13-2.08.24-4.16.5-6.22.81-1.24-2.06-2.49-4.12-3.8-6.13,1.16-1.94,2.34-3.87,3.54-5.78.01-.02.01-.04.03-.07,2.02-.14,4.03-.31,6.02-.48.08,0,.15-.03.22-.06Zm-9.81-8.87c1.32-.61,2.7-1,4.09-1.2,1.75,3.03,3.51,6.01,5.17,9.05-5.83.45-11.69.54-17.51,1.04,1.48-3.78,4.12-6.98,8.25-8.89Zm-9.12,18.65c-.1-.33-.39-.43-.65-.37-.08-2.96.3-5.91,1.23-8.61,3.57.17,7.18.05,10.78-.18-1.62,2.55-3.19,5.14-4.7,7.76-1.31,2.28-2.91,4.61-3.72,7.13-1.29-1.68-2.3-3.62-2.93-5.74Zm3.4,6.32c1.72-2.12,2.84-4.79,4.21-7.15.35-.62.73-1.22,1.09-1.83,2.14,5.21,5.41,10.36,8.8,14.79-5.47.64-10.66-1.72-14.1-5.81Zm16.73,5.28c-.55.16-1.11.28-1.66.38-.01-.04-.02-.08-.05-.13-1.72-2.76-3.38-5.58-5.06-8.38,5.75-.15,11.62-.72,17.32-1.55-1.76,4.51-5.51,8.18-10.55,9.67Zm10.93-10.76c-3.62.25-7.28.57-10.93.98,3.14-4.99,4.76-10.75,8.4-15.47,1.06,1.37,1.91,2.92,2.46,4.63,1.08,3.35,1.03,6.77.07,9.87Z"/>
          <g>
            <path class="cls-4" d="m69.49,57.83c-4.79,2.27-9.24,5.22-13.38,8.54-.01-.63-.02-1.25,0-1.84.12-4.52.4-9.04.46-13.56,0-.13-.04-.22-.11-.29.03-.23-.14-.48-.45-.41-6.16,1.42-5.03,11.25-5.34,15.88-.09,1.29-.17,2.58-.26,3.86-.78.38-1.52.98-2.23,1.48-.57.39-1.11.81-1.65,1.24-.02-.01-.02-.03-.04-.05-5.58-4.04-15.87-1.78-14.55,6.52,1.58,9.98,13.34,2.25,17.97-1.72-.04.64-.09,1.29-.13,1.93-.21,3.16-.86,6.96.98,9.79,2.56,3.94,8.5,3.33,10.76-.56,2.84-4.88-.58-10.12-5.47-11.66-.06-.02-.11-.02-.16-.02.02-.14.03-.28.03-.42,0-.3,0-.6-.02-.9,0-.09-.03-.15-.07-.2.16-.72.25-1.47.31-2.24.05-.01.11-.03.17-.06,5.08-3.06,15.06-7.15,13.73-14.61.36-.3-.06-.95-.55-.72Zm-19.53,18.81c-4,2.41-13.5,10.57-16.57,3.88-1.76-3.83.79-7.62,4.56-8.58,2.83-.72,5.67-.02,8,1.66.28.21.56.06.69-.18.78-.42,1.53-.89,2.26-1.38.46-.31.97-.61,1.43-.95-.12,1.85-.25,3.7-.37,5.54Zm11.61,8.1c.05,2.59-1.56,5.3-4.14,6.03-7.59,2.12-6.96-7.41-6.64-11.96.3-4.42.61-8.85.91-13.27.3-4.43-.59-11.92,4.03-14.31-.34,4.42-.41,8.87-.53,13.29-.1,3.51-.86,7.88-.03,11.39-.11.46-.12.92-.05,1.4.02.15.16.22.3.21.01.19.12.37.35.44,3.05.95,5.73,3.38,5.8,6.77Zm-5.37-12.68c.05-1.65-.02-3.35-.07-4.97,4.37-2.8,8.53-5.83,13.18-8.16.2,6.69-8.07,10.13-13.11,13.12Z"/>
            <path class="cls-4" d="m54.27,71.65c-.15-.38-.49-.69-.89-.8-.1-.03-.21-.04-.33-.03,0,0,0,0-.01,0-.77-.14-1.41.54-1.44,1.29-.04.85.74,1.38,1.53,1.25.78-.13,1.46-.89,1.14-1.7Zm-1.35,1.09c-.84.08-.88-.78-.48-1.29.04.09.12.16.24.16.22,0,.37-.15.59-.06.18.07.36.26.39.46.08.42-.39.71-.75.74Z"/>
            <path class="cls-4" d="m59.31,82.9c-.79-1.61-2.36-2.55-4.1-2.76-.2-.02-.32.07-.39.2-.11-.22-.5-.24-.55.04-.35,2.02-.99,4.71.31,6.53.97,1.36,2.75,1.61,4.04.53,1.32-1.11,1.42-3.07.7-4.55Zm-1.63,4.11c-3.54,1.88-2.96-4.08-2.85-6.2.07.13.19.24.37.26,1.27.14,2.47.83,3.13,1.95.77,1.29.83,3.21-.65,3.99Z"/>
            <path class="cls-4" d="m45.07,76.85c-1.26-4.42-8.08-4.19-9.4.09-.54,1.75.57,3.14,2.34,3.28,2.29.18,4.9-1.14,6.45-2.82.3.11.72-.16.61-.55Zm-8.42.36c.45-1.67,2.61-2.77,4.21-2.63,1.51.13,2.52,1.09,3.21,2.33-1.07.72-2.12,1.39-3.36,1.82-1.32.46-4.82,1.27-4.06-1.52Z"/>
          </g>
          <g>
            <path class="cls-4" d="m175.08,103.83c.53-.33,1.07-.62,1.67-.78.17.06.35.12.52.18.47.16.83-.31.71-.67.05-.05.1-.1.13-.19.62-1.65,1.24-3.28,1.95-4.89.59-1.34,1.32-2.66,1.75-4.06.52.14.84-.68.31-.96-12.58-6.74-26.44-10.41-38.63-17.98-.17-.11-.35-.04-.45.07.13-.15.06-.45-.19-.4-.62.12-1.42.5-1.88,1.03-.03.02-.06.04-.08.08-.01.02-.02.04-.03.06-.05.06-.09.13-.13.19-.02.04-.03.07-.03.11-1.73,3.14-3.03,6.54-4.28,9.89-.07.18.02.46.26.47.9.05.67.07,1.56-.07.08-.01.14-.05.19-.1,11.63,6.82,24.66,12.5,37.42,16.93-.42.14-.81.33-1.17.61-.02.02-.04.04-.06.06-6.45-2.4-12.85-4.89-19.1-7.79-6.28-2.92-12.23-6.8-18.59-9.49-.19-.08-.36.18-.19.31,5.28,4.01,11.95,6.81,17.94,9.6,6.48,3.03,13.1,5.84,19.86,8.18.31.11.55-.15.56-.4Zm-37.86-18.55c1.19-3.15,2.57-6.21,3.8-9.34.06,0,.12-.01.17-.05.28-.21.49-.51.78-.73.3-.23.64-.38.98-.55.03-.01.05-.03.07-.05-.01.01-.03.03-.04.04-.02.01-.05.02-.06.04-.93,1.3-1.26,3.09-1.89,4.56-.8,1.87-1.75,3.66-2.84,5.38-.04.07-.07.14-.08.21-.18.06-.28.25-.27.45-.21.01-.41.02-.62.03Zm20.57,8.85c-6.35-2.82-12.48-6.06-18.76-9.02,1.05-1.67,2-3.39,2.77-5.21.6-1.41,1.44-3.18,1.45-4.77,2.05,1.51,4.19,2.85,6.4,4.07-.37.32-.64.84-.85,1.26-.28.56-.48,1.14-.63,1.74-.11.42.58.54.67.11.12-.58.29-1.15.54-1.69.18-.41.47-.8.61-1.22.49.27.98.53,1.48.78-.14.21-.26.45-.38.68-.14.27-.31.55-.42.84-.12.32.34.53.49.22.13-.28.21-.59.31-.89.08-.24.16-.48.22-.73.85.44,1.71.86,2.57,1.27-.21.35-.42.7-.62,1.05-.2.34-.48.7-.55,1.09-.04.2.24.41.41.25.29-.28.44-.69.62-1.04.2-.38.39-.76.57-1.15.57.27,1.16.52,1.73.78-.06.08-.11.18-.14.28-.03.11-.04.23-.05.35,0,.02,0,.04,0,.05-.04-.03-.09-.06-.15-.06-.48,0-.34.72.03.8.24.06.45-.11.54-.32.08-.19,0-.8.19-.88.01,0,.02-.02.04-.02.66.29,1.33.58,1.99.86-.47.66-.9,1.37-1.21,2.11-.13.32.36.54.49.22.32-.75.63-1.49,1.03-2.2.61.26,1.22.51,1.84.77-.06.19-.13.39-.19.58-.09,0-.18.08-.18.19v.51c0,.23.32.2.37,0,.11-.39.19-.79.26-1.18.66.27,1.31.54,1.97.8-.42.66-.91,1.33-1.22,2.04-.11.24.24.47.4.25.47-.65.8-1.42,1.17-2.14.66.27,1.33.53,1.99.8,0,0,0,0-.01.02-.12.27-.24.53-.36.8-.11,0-.23.05-.24.18-.01.17-.02.33-.03.5-.02.26.34.4.46.14.21-.47.38-.96.56-1.45,0-.01,0-.02,0-.04.71.29,1.43.57,2.14.86-.48.76-1.08,1.75-1.09,2.67,0,.24.34.25.43.07.2-.4.28-.87.44-1.29.17-.42.37-.83.6-1.23.01-.02.02-.04.02-.06.68.27,1.36.55,2.05.83-.18.42-.35.85-.47,1.29-.05.19.24.27.33.1.19-.4.34-.82.49-1.25.86.35,1.72.71,2.58,1.07-.12.35-.23.7-.38,1.03-.19.45-.48.86-.64,1.31-.1.27.23.47.42.26.52-.57.91-1.57,1.05-2.41.73.31,1.46.63,2.19.95-.24.54-.49,1.08-.7,1.64-.09.22.23.45.37.23.12-.19.23-.37.35-.56.05-.08.04-.17,0-.23.12-.3.25-.6.37-.9,1.62.73,3.22,1.48,4.79,2.28-1.96,2.4-3.11,5.9-4.09,8.78-.01.03,0,.07-.01.1-6.5-2.62-13.03-5.11-19.43-7.96Z"/>
            <path class="cls-4" d="m146.56,82.45c.07-.02.13-.07.14-.15.1-.98-.39-2.03-1.45-2.18-.92-.13-1.87.48-1.96,1.44-.09.88.53,1.82,1.44,1.95.75.1,1.56-.36,1.83-1.07Zm-2.53-.83c.12-.54.7-.84,1.23-.74.48.09.73.49.9.92-.04.03-.07.07-.09.13-.06.19-.16.37-.28.52.02-.4-.18-.81-.57-.98-.47-.21-.99.02-1.2.45,0-.1,0-.2.01-.3Zm.81,1.23c-.38-.05-.66-.35-.78-.7.03,0,.06,0,.09-.03.42-.52,1.34-.14,1.04.53-.03.07-.03.13-.01.19-.11.02-.22.03-.34.02Z"/>
          </g>
          <g>
            <path class="cls-4" d="m178.52,62.63c2.18,1.79,4.78,3.18,7.54,3.75.44.09.67-.3.61-.65.23.16.57.2.82-.05,3.19-3.22,8.09-4.14,12.27-5.43.39-.12.49-.77.13-.99-4.14-2.54-8.06-5.37-11.99-8.22-.13-.1-.27-.11-.39-.07-1.44-.05-2.87-.03-4.31,0-.98.03-2.97-.3-3.93.28-.04-.08-.1-.14-.19-.16-1.18-.25-3.74-1.01-4.81-.23-.53.38-.55,1.04-.66,1.62-.23,1.33-.38,2.69-.56,4.02-.15,1.12-1.17,4.17-.46,5.18.28.4,1.13.47,1.5.54,1.29.26,2.58.52,3.87.75.3.06.49-.12.55-.35Zm-4.6-1.91c-.69-.97.06-3.3.21-4.49.11-.89-.02-3.34.5-4.03.77-1.01,2.97-.56,4.22-.57-1,1.32-.78,4.6-.97,6.03-.21,1.61-.79,3.03-.05,4.22-1.22-.2-3.28-.27-3.91-1.16Zm6.41,1.82c-1.91-1.85-1.5-3.42-1.19-5.79.27-2.08.24-3.99,2.59-4.62,1.64-.44,3.84-.23,5.59-.38,0,0,0,0,0,.01,3.06,2.63,6.37,4.95,9.78,7.11-2.82-.59-5.87-.91-8.75-.99-.13-.54-.69-1.08-1.27-1.09-1.3-.03-2.24,1.57-1.76,2.73.22.54.78.93,1.37.92.66-.01,1.09-.51,1.37-1.07.1-.2.16-.42.2-.64,2.84.56,5.76.79,8.63,1.17-3.74,1.08-7.55,2.25-10.32,5.07-.12.12-.16.26-.15.38-.06-.04-.13-.07-.22-.09-1.95-.4-4.42-1.31-5.88-2.71Z"/>
            <path class="cls-4" d="m204.32,83.11c.55-1.08.08-2.57-.92-3.24-.09-.08-.19-.15-.3-.2-.06-.03-.13-.06-.2-.08.26,0,.51-.13.55-.46.78-6.36,1.65-12.7,2.59-19.04.91-6.08,2.19-12.16,2.87-18.27,0,0,0,0,.01,0,.49.17.79-.35.57-.7.37-.1.71-.32.93-.65.75-1.15.02-2.73-1.15-3.27-1.23-.56-2.69.06-2.85,1.47-.14,1.24.72,2.24,1.76,2.81-3.09,12.15-4.32,25.08-5.85,37.5-.03.25.09.43.26.53-.47-.08-.96.05-1.35.37-1.07.85-1.36,3.07-.2,3.96,1.01.77,2.68.41,3.25-.72Zm3.25-43.57c-.34-.74,0-1.67.93-1.53.7.1,1.27.76,1.26,1.47,0,.62-.6,1.07-1.19,1.05-.41-.24-.79-.53-.99-.99Zm-5.56,43.59c-.8-.24-.69-1.36-.43-1.97.17-.4.48-.66.8-.71.61.47,1.29,1.05,1.08,1.92-.15.63-.86.93-1.45.75Z"/>
          </g>
          <g>
            <path class="cls-4" d="m158.9,45.58c1.08-3.6,2.91-7.58,3.36-11.31.17-1.44-.2-2.69-1.73-2.93-.02,0-.05,0-.07,0-.06-.09-.15-.17-.29-.21-8.21-2.47-16.46-4.82-24.71-7.13-3.07-.86-7.23-2.87-10.46-2.55-1.15.11-2,.62-2.42,1.52-.2-.02-.41.07-.49.32-2.04,5.8-3.44,11.91-5.09,17.83-.52,1.85-2.33,5.94-.01,7.11-.03.22.07.45.34.54,11.58,3.67,23.36,6.79,35.03,10.15.42.12.7-.22.71-.56,1.28-.18,2.09-1.16,2.72-2.61,1.38-3.18,2.11-6.83,3.11-10.15Zm1.44-8.81c-.24.81-.49,1.62-.73,2.43-.61,2.02-1.21,4.05-1.82,6.07-.75,2.51-2.28,12.47-5.95,12.27,0,0,0,0-.01,0-11.26-3.25-22.49-6.72-33.83-9.66-1.06-.67-.92-3.04-.65-4.02.23-.82.46-1.64.7-2.46.58-2.05,1.16-4.1,1.73-6.15,1.02-3.63,2.2-7.27,3.04-10.95.07-.04.12-.1.14-.18.99-3.35,8.49-.11,10.39.44,3.02.86,6.03,1.72,9.05,2.59,5.83,1.67,11.64,3.4,17.47,5.09.13.04.24.02.33-.01,1.13.65.41,3.68.14,4.55Z"/>
            <path class="cls-4" d="m155.23,46.33c1.22-3.94,2.54-7.88,3.57-11.88.1-.39-.24-.62-.54-.58,0-.18-.1-.37-.34-.45-8.47-2.79-17.37-4.77-26.04-6.84-.18-.04-.32.03-.4.15-.08.03-.16.1-.19.22-2.02,6.82-3.75,13.6-6.14,20.31,0,.02,0,.04,0,.06-.42-.07-.57.53-.16.68,8.44,2.95,17.48,5.33,26.33,6.64.35.05.59-.21.63-.47,2.07-1.83,2.51-5.33,3.29-7.83Zm-3.73,7.31c-8.51-2.05-17.04-4-25.54-6.12,2.97-6.21,4.72-13.36,5.94-20.12,8.48,2.5,17.11,5.18,25.76,6.96.06.01.11,0,.16,0-1.12,3.27-2.04,6.61-3.06,9.91-.96,3.09-1.67,6.52-3.26,9.37Z"/>
            <path class="cls-4" d="m124.74,34.22c-.16-.17-.41-.24-.68-.21-.5.06-.95.41-1.22.83-.59.92-.3,2.16.73,2.59.95.4,2.22-.02,2.47-1.09.2-.86-.42-1.95-1.3-2.12Zm-.68,2.43c-.5-.12-.74-.58-.62-1.07.06-.25.2-.49.39-.66.02-.02.06-.05.11-.08.04.08.12.14.23.16.52.1,1.09.46.99,1.09-.08.5-.66.67-1.1.56Z"/>
            <path class="cls-4" d="m127.86,30.31c.04-.24-.06-.49-.31-.56-1.23-.34-2.46-.67-3.69-1.01-.24-.07-.46.08-.54.3-.21.58-.4,1.18-.4,1.81,0,.14.06.23.15.3-.08.16-.05.39.19.46,1.16.37,2.33.71,3.5,1.07.24.07.45-.09.53-.3.27-.67.44-1.36.57-2.07Zm-3.84-.61c.96.27,1.91.54,2.87.81-.09.42-.2.83-.32,1.24-.98-.24-1.96-.49-2.94-.71.01-.02.03-.04.04-.07.13-.42.23-.84.35-1.26Z"/>
            <path class="cls-4" d="m128.92,28.44c-.08-.84-.03-1.64.18-2.46.05-.21-.06-.51-.31-.55-1.28-.18-2.54-.46-3.77-.84-.22-.07-.47.08-.53.3-.18.62-.38,1.23-.52,1.86-.02.08,0,.15,0,.21-.25.06-.31.43-.02.54,1.44.53,2.93.95,4.4,1.38.25.07.59-.13.56-.42Zm-.78-2.23c-.11.55-.16,1.09-.14,1.65-1.1-.28-2.2-.56-3.31-.79.02-.03.05-.06.06-.11.17-.47.31-.94.44-1.42.97.28,1.95.51,2.94.68Z"/>
            <path class="cls-4" d="m124.99,39.68c-1.19-.31-2.57-.9-3.81-.85-.09,0-.15.06-.18.13-.07-.01-.15,0-.23.06-.71.5-.97,1.32-1.06,2.16-.02.2.15.38.33.44.74.24,1.49.48,2.23.73.48.16,1.07.47,1.58.39.35-.05.52-.25.68-.54.33-.6.52-1.35.74-1.99.08-.22-.08-.47-.3-.53Zm-2.15,1.91c-.72-.24-1.44-.48-2.16-.72.11-.49.36-.87.6-1.34.03-.06.04-.13.03-.2.88.51,2.01.76,3.01,1.03-.09.28-.19.56-.32.81-.35.64-.51.62-1.16.41Z"/>
            <path class="cls-4" d="m123.36,43.95c-1.11-.25-2.21-.53-3.31-.8-.11-.26-.48-.42-.7-.17-.56.64-.88,1.38-1.01,2.22-.04.24.05.47.31.55.71.21,1.43.42,2.14.62.44.13.98.39,1.45.33.86-.1,1.15-1.59,1.41-2.23.08-.21-.09-.48-.29-.52Zm-1.07,1.56c-.25.34-.45.26-.8.15-.73-.22-1.46-.43-2.19-.65.13-.47.33-.89.61-1.31.93.3,1.85.6,2.77.91-.06.13-.11.26-.17.39-.07.15-.12.37-.22.51Z"/>
          </g>
          <g>
            <path class="cls-4" d="m115.17,58.04c-.35-.17-.86.01-.81.51.17,1.75.33,3.5.48,5.25-.1-.15-.26-.25-.49-.23-5.8.54-11.61.8-17.44.71-3.27-.05-6.55-.2-9.81-.46-1.4-.11-3.72-.74-5.04.13-.89.59-.91,1.18-.98,2.22-.21,2.95.21,6.06.32,9.02.22,6.23.44,12.46.65,18.69.21,6.01.39,12.03.63,18.04.11,2.68.3,6.33,3.09,7.67,1.58.76,3.49.35,5.16.21,2.93-.25,5.85-.52,8.77-.82,6.05-.62,12.13-1.22,18.12-2.3,0,0,0,0,0,0,.05,1.29.1,2.58.15,3.87,0,.08.03.14.07.18.02.27.37.52.66.34,1.18-.74,2.34-1.58,3.42-2.46.34-.28.21-.74-.09-.9-.62-18.87-2.14-37.73-2.98-56.6-.01-.31-.23-.48-.47-.51-.29-.44-.72-.8-1.1-1.16-.52-.5-1.05-1.07-1.64-1.49-.22-.16-.53-.07-.68.11Zm-11.77,59.39c-4.69.5-9.69,1.46-14.41,1.36-3.68-.08-4.69-1.91-5.03-5.1-.22-2.1-.19-4.25-.26-6.37-.17-4.94-.35-9.88-.52-14.82l-.5-14.18c-.08-2.36-.17-4.73-.25-7.09-.04-1.15-.38-2.72-.14-3.87.76-3.5,2.12-2.61,4.57-2.42,9.19.71,18.39.63,27.56-.22.25-.02.4-.17.47-.35,1.51,17.14,2.22,34.27,2.91,51.46,0,0-.01,0-.02,0-4.8.42-9.58,1.08-14.38,1.59Zm13.33-57.48c.37.32.76.73,1.2,1.02-.02.06-.03.12-.03.19.84,18.93,1.4,38,3.27,56.87-.85.62-1.68,1.28-2.48,1.97.48-20.33-1.02-40.91-3.16-61.11.38.38.8.72,1.2,1.07Z"/>
            <path class="cls-4" d="m85.1,67.07c-.42-.05-.67.32-.65.65-.15.1-.26.25-.24.48.84,15.81,1.47,31.69,2.85,47.46.03.29.28.39.5.33,0,.12.08.27.23.27,4.57.04,9.19-.73,13.73-1.2,4.57-.47,9.17-.82,13.71-1.51.3-.04.44-.29.43-.52.04-.06.08-.13.08-.22.87-14.62-.2-29.69-1.33-44.28-.05-.69-1.04-.67-1.13-.06-3.96-1.25-8.62-.93-12.7-.93-5.17,0-10.32.07-15.47-.48Zm28.16,1.75c.97,14.59.95,29.2,1.73,43.79-4.73.32-9.46.98-14.17,1.5-4.33.48-8.78.73-13.03,1.68.02-.05.04-.11.03-.17-.38-15.8-1.53-31.63-2.47-47.41,4.46.46,8.92.46,13.39.4,4.79-.07,9.75.51,14.51.21Z"/>
          </g>
          <g>
            <path class="cls-4" d="m197.33,160.92c-.69-1.06-1.42-1.69-2.68-1.27-.1.03-.17.09-.22.15-.13-.14-.33-.2-.56-.1-7.43,3.35-14.97,6.41-22.65,9.15-7.05,2.51-15.21,3.99-21.74,7.73-1.82,1.04-2.35,2.1-1.96,4.14.66,3.46,2.36,7.02,3.6,10.32,2.71,7.22,5.44,14.83,9.37,21.5-.17.3.11.76.54.63,6.06-1.88,12.07-3.95,18.04-6.14.9,4-.33,7.31-2.91,10.43-.11.13-.11.27-.05.39,0,.03-.01.05,0,.08.21.75.64,1.47.98,2.17.04.08.1.13.15.17.05.1.16.17.3.12,8.42-2.78,16.61-6.47,24.85-9.77.26-.1.31-.36.23-.56.66-1.12.2-2.85-1.08-3.32-.09-.03-.17-.03-.25,0,0-.23-.15-.48-.45-.48-3.46.04-7.7-.26-8.86-4.2,5.63-2.23,11.23-4.53,16.79-6.85.39-.16.41-.57.25-.85-1.46-7.65-4.8-15.28-7.47-22.57-1.25-3.42-2.23-7.83-4.23-10.89Zm4.84,48.91s-.05,0-.08.01c-8.12,3.26-16.46,6.21-24.37,9.94,0,0,0,0,0,0-.33-.57-.63-1.2-1.01-1.74,0,0,0,0,0,0,.26-.19.5-.41.73-.63,8.22-2.47,16.88-5,24.18-9.57.51.54.72,1.21.55,2Zm-1.23-2.7s.05-.01.07-.02c0,.02,0,.04,0,.06-7.02,4.31-15.07,6.48-22.76,9.31,2.02-2.67,2.52-6.58,1.41-9.66,3.96-1.46,7.89-2.98,11.82-4.54.58,4.46,5.92,4.88,9.47,4.84Zm7.39-12.95c-15.6,6.54-31.48,12.21-47.33,18.08-.54-1.47-1.12-2.92-1.72-4.37,8.08-2.59,15.91-6.14,23.77-9.3,7.84-3.15,15.8-6.1,23.54-9.5.75,2.29,1.36,4.1,1.74,5.09Zm-2.06-6.07c-.14.05-.28.1-.42.15-.01,0-.02.02-.04.02-7.79,2.88-15.44,6.2-23.14,9.31-7.87,3.18-15.97,6.05-23.6,9.78-1.93-4.6-4.06-9.12-5.84-13.77-1.2-3.13-2.35-6.27-3.44-9.44-.27-.79-.56-1.58-.81-2.38-.57-1.86-.79-1.8.79-3.41,1.71-1.76,3.63-2.38,5.91-3.2,13-4.63,25.98-8.73,38.58-14.44.12-.06.2-.14.25-.24.13.11.3.17.5.11,2.1-.61,7.89,17.27,11.24,27.49Z"/>
            <path class="cls-4" d="m185.4,200.26c-.27-.46-.78-.85-1.34-.82-.25.02-.49.13-.66.29-.83.07-1.55.88-1.57,1.72-.02,1.24,1.41,2.12,2.54,1.73,1.15-.4,1.62-1.9,1.02-2.93Zm-.53,1.23c-.1.64-.63,1.13-1.3,1.01-.65-.12-1.18-.74-.95-1.41.09-.26.25-.46.46-.6,0,.02,0,.04,0,.06.04.38.56.37.64.02.14-.58.75-.3.98.03.18.26.22.6.17.9Z"/>
            <path class="cls-4" d="m201.07,186.47s0-.02,0-.03c-2.38-7-5.12-13.89-7.21-20.99-.13-.43-.57-.4-.82-.15-.05-.28-.31-.53-.65-.4-13.23,5.13-26.86,9.86-39.73,15.85-.21.1-.21.32-.11.45-.27.02-.53.28-.43.62,2.15,6.88,4.3,14.4,7.64,20.8.05.1.13.14.21.15-.02.2.17.43.43.35,13.79-4.08,27.79-9.41,40.66-15.83.38-.19.3-.7,0-.83Zm-20.43,8.5c-6.75,2.65-13.59,5.02-20.39,7.53,0-.02,0-.04,0-.06-1.79-7.06-4.83-14.07-7.26-20.94-.03-.09-.08-.14-.13-.19,0,0,.01,0,.02,0,13.5-4.38,26.7-10.2,39.88-15.46.06-.02.1-.06.14-.09,0,.03,0,.05,0,.08.93,3.74,2.38,7.35,3.67,10.97,1.18,3.3,2.24,6.69,3.84,9.82-6.61,2.74-13.1,5.73-19.76,8.35Z"/>
          </g>
          <g>
            <path class="cls-4" d="m123.64,204.17c-.55-1.57-2.81-3.3-3.69-4.27-2.5-2.74-5.11-5.36-7.83-7.88-.21-.2-.52-.2-.73,0-1.58,1.46-3.2,2.86-4.85,4.23.66-1.8,1.28-3.61,1.86-5.43.49-.15.62-.95,0-1.1-2.48-.6-4.91-1.3-7.29-2.23-1.6-.62-3.16-1.32-4.69-2.09-.71-.36-1.67-1.19-2.42-1.26-1.83-.17-2.53,2.5-3.06,4.3-.14-1.87-.29-3.74-.47-5.6-.02-.21-.14-.35-.29-.44-.06-.22-.23-.41-.52-.42-5.28-.21-11.58-.55-16.67,1.03-.24.08-.25.36-.1.49-.16,0-.32.12-.34.34-.98,11.32.09,23.1.5,34.43.11,2.96.22,5.92.33,8.88.06,1.57-.38,4.31.29,5.69,1.19,2.47,6.78,1.47,8.98,1.43,2.2-.04,7.15.66,8.54-1.61.01-.02.02-.05.04-.07.07.33.49.58.8.26,9.86-10.14,22.79-17.01,32.01-27.75.35-.41,0-.95-.42-.94Zm-50.37-20.32c0-.12-.06-.21-.14-.26,5.33.35,10.89-.52,16.28-.46.14,3.41.32,6.81.49,10.21-.06-.03-.13-.04-.22-.04-5.27-.02-10.69.29-15.95.84-.07-3.44-.19-6.88-.46-10.28Zm.48,11.03c5.28.08,10.69-.1,15.94-.59.11-.01.19-.05.26-.1.03.52.05,1.03.07,1.55,0,0,0,0-.02,0-5.41.17-10.84.57-16.23,1.01,0-.62-.01-1.24-.02-1.87Zm.03,2.65c5.4-.15,10.84-.34,16.22-.76.02,0,.04-.01.06-.02.15,3.12.28,6.24.38,9.37-.04,0-.07-.02-.12-.02-5.42-.02-10.87-.09-16.28.16-.07,0-.13.02-.18.05-.04-2.92-.05-5.85-.09-8.77Zm.21,14.39c-.03-.79-.04-1.59-.06-2.39,5.34.13,10.72-.08,16.07-.07.65,0,.64-.97,0-1-5.28-.26-10.84-.24-16.08.57-.01-.67-.04-1.34-.05-2.02.05.02.11.04.17.04,5.41.24,10.86.18,16.28.16.06,0,.1-.02.15-.03,0,.04,0,.08,0,.12-.1.07-.14.22,0,.31,0,0,0,0,0,0,.03,1.04.05,2.09.06,3.13.04,2.77.04,5.53.02,8.3-.25.03-.49.06-.73.05-.05-.21-.2-.38-.48-.38-5.03.07-10.08.11-15.1.32-.09-2.37-.19-4.75-.27-7.12Zm.29,7.72c5,.39,10.08.37,15.08.13.12,0,.21-.05.29-.11.31.06.61.08.93.06,0,.42,0,.85,0,1.27-5.41.39-10.8.56-16.21.61-.02-.65-.05-1.31-.07-1.96Zm15.51,12.24c-1.26,1.61-5.06,1.2-7.12,1.24-1.82.03-4.11.31-5.89-.11-2.59-.62-2.05-1.4-2.12-3.37-.05-1.23-.1-2.47-.14-3.7-.05-1.21-.09-2.43-.14-3.64,5.39.25,10.8.12,16.18-.31,0,.9,0,1.81-.02,2.71-.03,2.06.52,5.56-.74,7.17Zm1.25-42.18c.09-.01.17-.05.22-.14.41-.69.78-1.39,1.18-2.09.24-.59.56-1.14.96-1.63.18-.65.49-.74.92-.28,1.27.09,3.52,1.81,4.73,2.33,2.76,1.19,5.61,2.11,8.53,2.82-1.68,3.72-3.3,7.46-4.9,11.2-.02-.11-.07-.21-.19-.27-3.65-2.04-7.47-3.72-11.11-5.81-.09-2.05-.2-4.09-.34-6.13Zm.38,7.01c3.3,2.26,6.98,4.48,10.75,5.69.12.04.23.01.32-.04-.1.22-.19.45-.29.67-3.51-1.59-7.13-2.99-10.72-4.41-.02-.64-.04-1.27-.06-1.91Zm.34,21.88c0-.5,0-.99,0-1.49,0-2.2-.02-4.4-.04-6.61,1.99.94,4.15,1.62,6.16,2.51,0,0,0,0,.01,0-1.01,2.3-2.03,4.6-3.07,6.89-.95-.58-2-1.01-3.07-1.3Zm2.77,1.94c-.92,2.01-1.86,4.01-2.84,6,0-.19,0-.38,0-.55.04-2.28.06-4.57.07-6.85.98.38,1.88.84,2.77,1.4Zm-2.81-10.58c0-.54,0-1.07,0-1.61,2.19,1.23,4.58,2.22,6.97,2.89-.14.33-.29.65-.43.98,0,0-.01-.01-.02-.01-2.05-.86-4.29-1.86-6.5-2.25Zm7.22.43c-2.47-.8-4.85-1.68-7.24-2.67-.04-2.82-.1-5.64-.19-8.45,3.43,1.56,6.87,3.15,10.37,4.54-.95,2.21-1.89,4.42-2.85,6.62-.03-.01-.05-.03-.08-.04Zm-7.44,21.67c.29-.88.33-2.02.29-3.14.03-.03.06-.06.08-.1,2.42-4.84,4.84-9.76,7.15-14.73,1.92,1.86,3.92,3.76,6.03,5.36.34.26.73-.29.45-.58-1.89-1.91-4.09-3.67-6.21-5.35.45-.97.9-1.94,1.34-2.91,2.14,2.51,4.64,5.15,7.47,6.75.03.02.06.02.09.03-5.85,4.58-11.7,9.16-16.68,14.68Zm17.12-15.02c0-.08-.03-.16-.1-.23-1.34-1.26-2.89-2.29-4.26-3.53-1.17-1.05-2.27-2.16-3.34-3.31,1.17-2.62,2.31-5.26,3.39-7.92,1.77,1.82,3.71,3.49,5.62,5.16.92.81,1.85,1.62,2.79,2.42.1.09,1.3,1.03,2.12,1.54-.03.04-.06.1-.07.16,0,.04-.01.08-.02.12-.03.19.04.41.23.5-2.09,1.73-4.22,3.41-6.35,5.08Zm7.87-6.35c-.2.17-.41.34-.61.51-1.17-1.68-3.49-2.97-5.06-4.29-2.1-1.76-4.13-3.62-6.29-5.3-.01,0-.02-.01-.03-.02.14-.35.28-.69.42-1.04,1.81,1.57,3.66,3.11,5.51,4.65.59.49,5.91,5.35,6.26,5.1-.14.1-.19.24-.19.38Zm5.98-6.18s-.05.09-.08.13c-.1.18-.08.42.04.58-1.63,1.65-3.33,3.21-5.08,4.72-.73-1.65-3.71-3.23-4.88-4.18-2.43-1.96-4.85-3.93-7.32-5.83.32-.81.64-1.62.94-2.44,1.07-.71,2.11-1.44,3.12-2.23.45-.35,1.51-1.67,2.09-1.74,1.16-.15,1.87.98,2.6,1.71,1.39,1.37,2.75,2.77,4.07,4.2.39.42,3.37,3.55,4.74,4.88-.1.03-.19.1-.26.2Z"/>
            <path class="cls-4" d="m83.58,229.08c-.32-.37-.62-.45-1.08-.46-.08,0-.14.04-.18.1-.1-.19-.31-.34-.55-.28-.86.18-1.36,1.08-1.27,1.93.1.93.91,1.55,1.82,1.51.89-.03,1.68-.69,1.69-1.61,0-.43-.15-.86-.43-1.18Zm-1.26,1.73c-1.01.08-.89-1.15-.18-1.5.12-.06.19-.15.22-.25,0,0,0,.01.02.02.69.35.93,1.65-.06,1.73Z"/>
          </g>
          <path class="cls-4" d="m32.34,46.1c-.86-.75-2.08-.99-3.05-1.6-1.1-.69-1.88-1.62-2.79-2.51-.68-.66-1.63.17-1.26.97.6,1.28,1.77,2.32,2.92,3.11,1.08.74,2.51,1.57,3.85,1.29.54-.11.75-.9.33-1.26Z"/>
          <path class="cls-4" d="m31.11,49.56c-1.62-.18-3.07-.61-4.44-1.51-.51-.34-.95.46-.47.8,1.43,1.03,3.13,1.71,4.91,1.76.69.02.66-.98,0-1.05Z"/>
          <path class="cls-4" d="m100.4,37.73c-1.41,1.34-2.58,3-3.82,4.5-.36.43.23,1.04.62.62,1.34-1.46,2.85-2.88,4.01-4.49.35-.49-.4-1.02-.81-.63Z"/>
          <path class="cls-4" d="m103.6,37.93c-.6.6-1.08,1.31-1.58,1.99-.51.7-1.1,1.4-1.46,2.19-.27.59.38,1.08.88.68.68-.55,1.22-1.28,1.78-1.95.54-.64,1.11-1.29,1.55-2.01.44-.73-.57-1.5-1.17-.91Z"/>
          <path class="cls-4" d="m160.78,26.72c-.38,0-.37.55,0,.58,1.18.11,2.18.65,2.95,1.55.74.87.84,1.79,1.21,2.81.3.84,1.57.73,1.59-.21.07-2.78-3.32-4.7-5.75-4.73Z"/>
          <path class="cls-4" d="m167.57,27.34c-.44-.15-.73.53-.32.75.54.29,1,.69,1.32,1.22.32.51.4,1.08.6,1.63.24.67,1.2.57,1.24-.17.09-1.59-1.48-2.97-2.85-3.44Z"/>
          <path class="cls-4" d="m196.1,28.42c-1.96.19-4.05,1.39-5.6,2.55-.6.45-.07,1.44.6,1.03.89-.53,1.8-1.04,2.76-1.43.84-.35,1.74-.53,2.58-.9.6-.26.31-1.31-.34-1.24Z"/>
          <path class="cls-4" d="m196.9,30.7c-.61.1-1.19.39-1.75.63-.58.26-1.18.49-1.73.8-.68.38-.22,1.42.52,1.24,1.13-.28,2.55-.7,3.53-1.34.71-.47.25-1.47-.56-1.33Z"/>
          <path class="cls-4" d="m164.56,77.01c-1.83-.42-3.57-1.07-5.22-1.97-.52-.28-.97.49-.46.79,1.7.98,3.5,1.71,5.4,2.2.66.17.94-.87.28-1.02Z"/>
          <path class="cls-4" d="m166.04,75.66c-1.05-.73-2.28-1.27-3.4-1.88-.52-.28-.96.48-.46.79,1.09.67,2.17,1.47,3.32,2.01.62.29,1.11-.53.54-.93Z"/>
          <path class="cls-4" d="m188.64,122.28c-1.62.52-2.78,2.03-3.12,3.67-.14.68.8.94,1.03.29.46-1.31,1.37-2.21,2.49-2.99.46-.32.2-1.16-.41-.96Z"/>
          <path class="cls-4" d="m187.78,119.62c-1.24-.02-2.42.82-2.76,2.02-.12.44.47.65.71.3.48-.7,1.2-1.18,2.05-1.29.64-.08.69-1.02,0-1.04Z"/>
          <path class="cls-4" d="m197.31,155.47c-1.15-1.94-3.99-2.5-6.04-2.06-.6.13-.47,1.09.14,1.07.98-.03,1.93.1,2.84.48.82.34,1.45.92,2.2,1.36.54.32,1.17-.32.85-.85Z"/>
          <path class="cls-4" d="m195.05,150.97c-1.7-1-3.91-.91-5.7-.25-.58.22-.35,1.14.26.95,1.78-.56,3.3-.26,5.04.26.58.17.92-.66.41-.96Z"/>
          <path class="cls-4" d="m149.77,162.61c-2.28-.23-4.41-.32-6.59-1.11-.32-.11-.53.4-.23.55,2.06,1.01,4.5,1.85,6.82,1.56.64-.08.65-.94,0-1Z"/>
          <path class="cls-4" d="m151.33,164.61c-.87.25-1.67.52-2.59.47-.9-.05-1.7-.39-2.52-.73-.44-.18-.75.47-.44.76,1.51,1.45,4.26,1.8,6.1.79.7-.38.23-1.51-.54-1.29Z"/>
          <path class="cls-4" d="m117.03,190.61c-.32-.79-1.01-1.33-1.55-1.98-.62-.76-1.16-1.57-1.64-2.42-.31-.55-1.05-.07-.82.48.39.9.83,1.78,1.36,2.6.45.7.98,1.64,1.76,2,.42.19,1.11-.14.89-.68Z"/>
          <path class="cls-4" d="m121.5,189.09c-1.69-1.07-3.22-2.33-4.71-3.65-.29-.26-.84.09-.58.45,1.21,1.7,2.68,3.18,4.27,4.53.93.79,2.05-.67,1.02-1.33Z"/>
          <path class="cls-4" d="m81.49,157.7c-1.66-1.35-2.37-2.98-3.21-4.88-.23-.53-1.02-.23-1.03.28-.04,2.26,1.73,4.38,3.64,5.39.48.25,1.07-.41.61-.79Z"/>
          <path class="cls-4" d="m76.9,157.19c-.35-.55-.63-1.12-.81-1.75-.18-.61-.13-1.25-.3-1.85-.2-.7-1.13-.63-1.36,0-.52,1.45.48,3.36,1.55,4.31.48.43,1.3-.12.92-.71Z"/>
          <path class="cls-4" d="m34.9,176.32c-1.67-1.77-3.49-3.39-5.14-5.19-.32-.36-.97.12-.68.52,1.44,2,2.98,4.02,4.88,5.61.64.54,1.52-.3.93-.93Z"/>
          <path class="cls-4" d="m33.51,180.1c-.87-.67-1.76-1.3-2.58-2.04-.78-.71-1.42-1.55-2.19-2.27-.44-.41-1.05.1-.8.62.93,1.95,2.96,3.9,4.8,5.01.87.52,1.53-.74.77-1.32Z"/>
          <path class="cls-4" d="m78.67,102.44c-.07-.72-1.06-.72-1.12,0-.21,2.28-.29,4.73,0,7,.09.73,1.05.73,1.14,0,.28-2.27.2-4.72,0-7Z"/>
          <path class="cls-4" d="m74.88,105.99c-.28-1.45-.52-2.72-.36-4.21.08-.8-1.26-.99-1.42-.19-.32,1.65-.09,3.52,1,4.85.32.39.86-.04.78-.45Z"/>
          <path class="cls-4" d="m38.7,87.09c-2.23.67-4.1.92-6.11-.55-.21-.15-.47.19-.28.36,1.71,1.51,4.67,2.34,6.74,1.03.43-.27.16-.99-.35-.84Z"/>
          <path class="cls-4" d="m40.61,90.51c-1.64.48-3.1.93-4.84.83-.46-.03-.57.72-.11.81,1.78.34,3.78.35,5.44-.46.66-.32.2-1.38-.49-1.17Z"/>
          <path class="cls-4" d="m22.69,104.87c-1.16,1.86-1.54,4.08-1.3,6.24.05.47.79.49.76,0-.13-2.09.4-3.92,1.38-5.75.29-.55-.5-1.02-.83-.49Z"/>
          <path class="cls-4" d="m25.89,105.12c-.82,1.14-1.27,2.74-1.06,4.14.09.6,1,.52,1.14,0,.15-.57.22-1.16.41-1.73.2-.58.46-1.15.72-1.71.39-.82-.69-1.45-1.21-.71Z"/>
          <path class="cls-4" d="m151.22,195.99c-1.55-1.7-2.82-3.41-3.6-5.6-.14-.39-.73-.24-.63.17.56,2.3,1.67,4.6,3.44,6.21.53.48,1.26-.25.78-.78Z"/>
          <path class="cls-4" d="m147.29,194.59c-.65-.83-1.37-1.61-1.97-2.48-.57-.82-1.01-1.72-1.57-2.54-.33-.49-1.1-.19-.96.41.47,2.03,1.96,4.24,3.56,5.56.67.56,1.47-.27.94-.94Z"/>
          <path class="cls-4" d="m7.86,9.13c-.37-.08-.54.48-.16.58,1.44.35,2.54,1.58,2.66,3.07.04.51.85.5.79,0-.22-1.79-1.51-3.28-3.29-3.65Z"/>
          <path class="cls-4" d="m12.58,8.32c-.35-.39-1.07.14-.75.58.52.71.93,1.46,1.18,2.31.23.79.16,1.64.41,2.41.19.57,1.06.63,1.22,0,.46-1.78-.93-4.03-2.06-5.29Z"/>
        </g>
        <g>
          <path class="cls-4" d="m20.21,101.25c.09-.42-.32-.9-.77-.6-5.02,3.44-9.52,7.53-13.3,12.31-2.86,3.63-6.84,8.4-6.4,13.32-1.56-.14-3.18.19-4.26,1.04-1.02.8-1.43,1.95-1.59,3.19-.41,3.2-.69,5.81-2.39,8.67-.08.14-.09.28-.06.4-.02,0-.03,0-.05,0-.52.04-.51.74,0,.8,3.64.4,8.41.79,11.03-2.33,1.84-2.19,3.25-7.07,1.5-9.64-.02-.02-.03-.04-.05-.06,11.67-4.48,10.89-17.03,16.65-26.31.22-.35,0-.68-.31-.79ZM1.05,137.84c-2.21,2.04-5.54,1.69-8.43,1.71,1.16-1.97,1.95-4.08,2.22-6.37.2-1.64,0-3.37,1.18-4.65,1.2-1.29,3.81-1.45,5.34-.58,3.3,1.89,2.18,7.58-.31,9.87Zm2.36-10.01c-.75-.74-1.81-1.22-2.94-1.44.24-3.46,2.03-6.83,4.2-9.84,2.9.54,5.23,1.59,6.89,4.23,0,.02.02.02.03.04-.47.75-1,1.47-1.59,2.13-1.88,2.09-4.45,3.16-6.58,4.89Zm10.71-12.4c-.55,1.51-1.18,3.02-1.97,4.44-1.49-2.27-4.22-4.05-6.98-4,1.12-1.5,2.31-2.9,3.42-4.18,3.12-3.59,6.65-6.73,10.52-9.48-2.39,4.13-3.36,8.76-4.98,13.22Z"/>
          <g>
            <path class="cls-4" d="m-15.7,62.63c2.18,1.79,4.78,3.18,7.54,3.75.44.09.67-.3.61-.65.23.16.57.2.82-.05,3.19-3.22,8.09-4.14,12.27-5.43.39-.12.49-.77.13-.99-4.14-2.54-8.06-5.37-11.99-8.22-.13-.1-.27-.11-.39-.07-1.44-.05-2.87-.03-4.31,0-.98.03-2.97-.3-3.93.28-.04-.08-.1-.14-.19-.16-1.18-.25-3.74-1.01-4.81-.23-.53.38-.55,1.04-.66,1.62-.23,1.33-.38,2.69-.56,4.02-.15,1.12-1.17,4.17-.46,5.18.28.4,1.13.47,1.5.54,1.29.26,2.58.52,3.87.75.3.06.49-.12.55-.35Zm-4.6-1.91c-.69-.97.06-3.3.21-4.49.11-.89-.02-3.34.5-4.03.77-1.01,2.97-.56,4.22-.57-1,1.32-.78,4.6-.97,6.03-.21,1.61-.79,3.03-.05,4.22-1.22-.2-3.28-.27-3.91-1.16Zm6.41,1.82c-1.91-1.85-1.5-3.42-1.19-5.79.27-2.08.24-3.99,2.59-4.62,1.64-.44,3.84-.23,5.59-.38,0,0,0,0,0,.01,3.06,2.63,6.37,4.95,9.78,7.11-2.82-.59-5.87-.91-8.75-.99-.13-.54-.69-1.08-1.27-1.09-1.3-.03-2.24,1.57-1.76,2.73.22.54.78.93,1.37.92.66-.01,1.09-.51,1.37-1.07.1-.2.16-.42.2-.64,2.84.56,5.76.79,8.63,1.17-3.74,1.08-7.55,2.25-10.32,5.07-.12.12-.16.26-.15.38-.06-.04-.13-.07-.22-.09-1.95-.4-4.42-1.31-5.88-2.71Z"/>
            <path class="cls-4" d="m10.11,83.11c.55-1.08.08-2.57-.92-3.24-.09-.08-.19-.15-.3-.2-.06-.03-.13-.06-.2-.08.26,0,.51-.13.55-.46.78-6.36,1.65-12.7,2.59-19.04.91-6.08,2.19-12.16,2.87-18.27,0,0,0,0,.01,0,.49.17.79-.35.57-.7.37-.1.71-.32.93-.65.75-1.15.02-2.73-1.15-3.27-1.23-.56-2.69.06-2.85,1.47-.14,1.24.72,2.24,1.76,2.81-3.09,12.15-4.32,25.08-5.85,37.5-.03.25.09.43.26.53-.47-.08-.96.05-1.35.37-1.07.85-1.36,3.07-.2,3.96,1.01.77,2.68.41,3.25-.72Zm3.25-43.57c-.34-.74,0-1.67.93-1.53.7.1,1.27.76,1.26,1.47,0,.62-.6,1.07-1.19,1.05-.41-.24-.79-.53-.99-.99Zm-5.56,43.59c-.8-.24-.69-1.36-.43-1.97.17-.4.48-.66.81-.71.61.47,1.29,1.05,1.08,1.92-.15.63-.86.93-1.45.75Z"/>
          </g>
          <g>
            <path class="cls-4" d="m3.12,160.92c-.69-1.06-1.42-1.69-2.68-1.27-.1.03-.17.09-.22.15-.13-.14-.33-.2-.56-.1-7.43,3.35-14.97,6.41-22.65,9.15-7.05,2.51-15.21,3.99-21.74,7.73-1.82,1.04-2.35,2.1-1.96,4.14.66,3.46,2.36,7.02,3.6,10.32,2.71,7.22,5.44,14.83,9.37,21.5-.17.3.11.76.54.63,6.06-1.88,12.07-3.95,18.04-6.14.9,4-.33,7.31-2.91,10.43-.11.13-.11.27-.05.39,0,.03-.01.05,0,.08.21.75.64,1.47.98,2.17.04.08.1.13.15.17.05.1.16.17.3.12,8.42-2.78,16.61-6.47,24.85-9.77.26-.1.31-.36.23-.56.66-1.12.2-2.85-1.08-3.32-.09-.03-.17-.03-.25,0,0-.23-.15-.48-.45-.48-3.46.04-7.7-.26-8.86-4.2,5.63-2.23,11.23-4.53,16.79-6.85.39-.16.41-.57.25-.85-1.46-7.65-4.8-15.28-7.47-22.57-1.25-3.42-2.23-7.83-4.23-10.89Zm4.84,48.91s-.05,0-.08.01c-8.12,3.26-16.46,6.21-24.37,9.94,0,0,0,0,0,0-.33-.57-.63-1.2-1.01-1.74,0,0,0,0,0,0,.26-.19.5-.41.73-.63,8.22-2.47,16.88-5,24.18-9.57.51.54.72,1.21.55,2Zm-1.23-2.7s.05-.01.07-.02c0,.02,0,.04,0,.06-7.02,4.31-15.07,6.48-22.76,9.31,2.02-2.67,2.52-6.58,1.41-9.66,3.96-1.46,7.89-2.98,11.82-4.54.58,4.46,5.92,4.88,9.47,4.84Zm7.39-12.95c-15.6,6.54-31.48,12.21-47.33,18.08-.54-1.47-1.12-2.92-1.72-4.37,8.08-2.59,15.91-6.14,23.77-9.3,7.84-3.15,15.8-6.1,23.54-9.5.75,2.29,1.36,4.1,1.74,5.09Zm-2.06-6.07c-.14.05-.28.1-.42.15-.02,0-.02.02-.04.02-7.79,2.88-15.44,6.2-23.14,9.31-7.87,3.18-15.97,6.05-23.6,9.78-1.93-4.6-4.06-9.12-5.84-13.77-1.2-3.13-2.35-6.27-3.44-9.44-.27-.79-.56-1.58-.81-2.38-.57-1.86-.79-1.8.79-3.41,1.71-1.76,3.63-2.38,5.91-3.2,13-4.63,25.98-8.73,38.58-14.44.12-.06.2-.14.25-.24.13.11.3.17.5.11,2.1-.61,7.89,17.27,11.24,27.49Z"/>
            <path class="cls-4" d="m6.85,186.47s0-.02,0-.03c-2.38-7-5.12-13.89-7.21-20.99-.13-.43-.57-.4-.82-.15-.05-.28-.31-.53-.65-.4-13.23,5.13-26.86,9.86-39.73,15.85-.21.1-.21.32-.11.45-.27.02-.53.28-.43.62,2.15,6.88,4.3,14.4,7.64,20.8.05.1.13.14.21.15-.02.2.17.43.43.35,13.79-4.08,27.79-9.41,40.66-15.83.38-.19.3-.7,0-.83Zm-20.43,8.5c-6.75,2.65-13.59,5.02-20.39,7.53,0-.02,0-.04,0-.06-1.79-7.06-4.83-14.07-7.26-20.94-.03-.09-.08-.14-.13-.19,0,0,.02,0,.02,0,13.5-4.38,26.7-10.2,39.88-15.46.06-.02.1-.06.14-.09,0,.03,0,.05,0,.08.93,3.74,2.38,7.35,3.67,10.97,1.18,3.3,2.24,6.69,3.84,9.82-6.61,2.74-13.1,5.73-19.76,8.35Z"/>
          </g>
          <path class="cls-4" d="m1.89,28.42c-1.96.19-4.05,1.39-5.6,2.55-.6.45-.07,1.44.6,1.03.89-.53,1.8-1.04,2.76-1.43.84-.35,1.74-.53,2.58-.9.6-.26.31-1.31-.34-1.24Z"/>
          <path class="cls-4" d="m2.68,30.7c-.61.1-1.19.39-1.75.63-.58.26-1.18.49-1.73.8-.68.38-.22,1.42.52,1.24,1.13-.28,2.55-.7,3.53-1.34.71-.47.25-1.47-.56-1.33Z"/>
          <path class="cls-4" d="m3.09,155.47c-1.15-1.94-3.99-2.5-6.04-2.06-.6.13-.47,1.09.14,1.07.98-.03,1.93.1,2.84.48.82.34,1.45.92,2.2,1.36.54.32,1.17-.32.85-.85Z"/>
          <path class="cls-4" d="m.83,150.97c-1.7-1-3.91-.91-5.7-.25-.58.22-.35,1.14.26.95,1.78-.56,3.3-.26,5.04.26.58.17.92-.66.41-.96Z"/>
        </g>
        <g>
          <g>
            <path class="cls-4" d="m197.33-33.29c-.69-1.06-1.42-1.69-2.68-1.27-.1.03-.17.09-.22.15-.13-.14-.33-.2-.56-.1-7.43,3.35-14.97,6.41-22.65,9.15-7.05,2.51-15.21,3.99-21.74,7.73-1.82,1.04-2.35,2.1-1.96,4.14.66,3.46,2.36,7.02,3.6,10.32,2.71,7.22,5.44,14.83,9.37,21.5-.17.3.11.76.54.63,6.06-1.88,12.07-3.95,18.04-6.14.9,4-.33,7.31-2.91,10.43-.11.13-.11.27-.05.4,0,.03-.01.05,0,.08.21.75.64,1.47.98,2.17.04.08.1.13.15.17.05.1.16.17.3.12,8.42-2.78,16.61-6.47,24.85-9.77.26-.1.31-.36.23-.56.66-1.12.2-2.85-1.08-3.32-.09-.03-.17-.03-.25,0,0-.23-.15-.48-.45-.48-3.46.04-7.7-.26-8.86-4.2,5.63-2.23,11.23-4.53,16.79-6.85.39-.16.41-.57.25-.85-1.46-7.65-4.8-15.28-7.47-22.57-1.25-3.42-2.23-7.83-4.23-10.89Zm4.84,48.91s-.05,0-.08.01c-8.12,3.26-16.46,6.21-24.37,9.94,0,0,0,0,0,0-.33-.57-.63-1.2-1.01-1.74,0,0,0,0,0,0,.26-.19.5-.41.73-.63,8.22-2.47,16.88-5,24.18-9.57.51.54.72,1.21.55,2Zm-1.23-2.7s.05-.01.07-.02c0,.02,0,.04,0,.06-7.02,4.31-15.07,6.48-22.76,9.31,2.02-2.67,2.52-6.58,1.41-9.66,3.96-1.46,7.89-2.98,11.82-4.54.58,4.46,5.92,4.88,9.47,4.84ZM208.33-.04c-15.6,6.54-31.48,12.21-47.33,18.08-.54-1.47-1.12-2.92-1.72-4.37,8.08-2.59,15.91-6.14,23.77-9.3,7.84-3.15,15.8-6.1,23.54-9.5.75,2.29,1.36,4.1,1.74,5.09Zm-2.06-6.07c-.14.05-.28.1-.42.15-.01,0-.02.02-.04.02-7.79,2.88-15.44,6.2-23.14,9.31-7.87,3.18-15.97,6.05-23.6,9.78-1.93-4.6-4.06-9.12-5.84-13.77-1.2-3.13-2.35-6.27-3.44-9.44-.27-.79-.56-1.58-.81-2.38-.57-1.86-.79-1.79.79-3.41,1.71-1.76,3.63-2.38,5.91-3.2,13-4.63,25.98-8.73,38.58-14.44.12-.06.2-.14.25-.24.13.11.3.17.5.11,2.1-.61,7.89,17.27,11.24,27.49Z"/>
            <path class="cls-4" d="m185.4,6.05c-.27-.46-.78-.85-1.34-.82-.25.02-.49.13-.66.29-.83.07-1.55.88-1.57,1.72-.02,1.24,1.41,2.12,2.54,1.73,1.15-.4,1.62-1.9,1.02-2.93Zm-.53,1.23c-.1.64-.63,1.13-1.3,1.01-.65-.12-1.18-.74-.95-1.41.09-.26.25-.46.46-.6,0,.02,0,.04,0,.06.04.38.56.37.64.02.14-.58.75-.3.98.03.18.26.22.6.17.9Z"/>
            <path class="cls-4" d="m201.07-7.75s0-.02,0-.03c-2.38-7-5.12-13.89-7.21-20.99-.13-.43-.57-.4-.82-.15-.05-.28-.31-.53-.65-.4-13.23,5.13-26.86,9.86-39.73,15.85-.21.1-.21.32-.11.45-.27.02-.53.28-.43.62,2.15,6.88,4.3,14.4,7.64,20.8.05.1.13.14.21.15-.02.2.17.43.43.35,13.79-4.08,27.79-9.41,40.66-15.83.38-.19.3-.7,0-.83ZM180.64.75c-6.75,2.65-13.59,5.02-20.39,7.53,0-.02,0-.04,0-.06-1.79-7.06-4.83-14.07-7.26-20.94-.03-.09-.08-.14-.13-.19,0,0,.01,0,.02,0,13.5-4.38,26.7-10.2,39.88-15.46.06-.02.1-.06.14-.09,0,.03,0,.05,0,.08.93,3.74,2.38,7.35,3.67,10.97,1.18,3.3,2.24,6.69,3.84,9.82-6.61,2.74-13.1,5.73-19.76,8.35Z"/>
          </g>
          <g>
            <path class="cls-4" d="m123.64,9.96c-.55-1.57-2.81-3.3-3.69-4.27-2.5-2.74-5.11-5.36-7.83-7.88-.21-.2-.52-.2-.73,0-1.58,1.46-3.2,2.86-4.85,4.23.66-1.8,1.28-3.61,1.86-5.43.49-.15.62-.95,0-1.1-2.48-.6-4.91-1.3-7.29-2.23-1.6-.62-3.16-1.32-4.69-2.09-.71-.36-1.67-1.19-2.42-1.26-1.83-.17-2.53,2.5-3.06,4.3-.14-1.87-.29-3.74-.47-5.6-.02-.21-.14-.35-.29-.44-.06-.22-.23-.41-.52-.42-5.28-.21-11.58-.55-16.67,1.03-.24.08-.25.36-.1.49-.16,0-.32.12-.34.34-.98,11.32.09,23.1.5,34.43.11,2.96.22,5.92.33,8.88.06,1.57-.38,4.31.29,5.69,1.19,2.47,6.78,1.47,8.98,1.43,2.2-.04,7.15.66,8.54-1.61.01-.02.02-.05.04-.07.07.33.49.58.8.26,9.86-10.14,22.79-17.01,32.01-27.75.35-.41,0-.95-.42-.94Zm-50.37-20.32c0-.12-.06-.21-.14-.26,5.33.35,10.89-.52,16.28-.46.14,3.41.32,6.81.49,10.21-.06-.03-.13-.04-.22-.04-5.27-.02-10.69.29-15.95.84-.07-3.44-.19-6.88-.46-10.28Zm.48,11.03c5.28.08,10.69-.1,15.94-.59.11,0,.19-.05.26-.1.03.52.05,1.03.07,1.55,0,0,0,0-.02,0-5.41.17-10.84.57-16.23,1.01,0-.62-.01-1.24-.02-1.87Zm.03,2.65c5.4-.15,10.84-.34,16.22-.76.02,0,.04-.01.06-.02.15,3.12.28,6.24.38,9.37-.04,0-.07-.02-.12-.02-5.42-.02-10.87-.08-16.28.16-.07,0-.13.02-.18.05-.04-2.92-.05-5.85-.09-8.77Zm.21,14.39c-.03-.79-.04-1.59-.06-2.39,5.34.13,10.72-.08,16.07-.07.65,0,.64-.97,0-1-5.28-.26-10.84-.24-16.08.57-.01-.67-.04-1.34-.05-2.02.05.02.11.04.17.04,5.41.24,10.86.18,16.28.16.06,0,.1-.02.15-.03,0,.04,0,.08,0,.12-.1.07-.14.22,0,.31,0,0,0,0,0,0,.03,1.04.05,2.09.06,3.13.04,2.77.04,5.53.02,8.3-.25.03-.49.06-.73.05-.05-.21-.2-.38-.48-.38-5.03.07-10.08.11-15.1.32-.09-2.37-.19-4.75-.27-7.12Zm.29,7.72c5,.39,10.08.37,15.08.13.12,0,.21-.05.29-.11.31.06.61.08.93.06,0,.42,0,.85,0,1.27-5.41.39-10.8.56-16.21.61-.02-.65-.05-1.31-.07-1.96Zm15.51,12.24c-1.26,1.61-5.06,1.2-7.12,1.24-1.82.03-4.11.31-5.89-.11-2.59-.62-2.05-1.4-2.12-3.37-.05-1.23-.1-2.47-.14-3.7-.05-1.21-.09-2.43-.14-3.64,5.39.25,10.8.12,16.18-.31,0,.9,0,1.81-.02,2.71-.03,2.06.52,5.56-.74,7.17Zm1.25-42.18c.09-.01.17-.05.22-.14.41-.69.78-1.39,1.18-2.09.24-.59.56-1.14.96-1.63.18-.65.49-.75.92-.28,1.27.09,3.52,1.81,4.73,2.33,2.76,1.19,5.61,2.11,8.53,2.82-1.68,3.72-3.3,7.46-4.9,11.2-.02-.11-.07-.21-.19-.27-3.65-2.04-7.47-3.72-11.11-5.81-.09-2.05-.2-4.09-.34-6.13Zm.38,7.01c3.3,2.26,6.98,4.48,10.75,5.69.12.04.23.01.32-.04-.1.22-.19.45-.29.67-3.51-1.59-7.13-2.99-10.72-4.41-.02-.64-.04-1.27-.06-1.91Zm.34,21.88c0-.5,0-.99,0-1.49,0-2.2-.02-4.4-.04-6.61,1.99.94,4.15,1.62,6.16,2.51,0,0,0,0,.01,0-1.01,2.3-2.03,4.6-3.07,6.89-.95-.58-2-1.01-3.07-1.3Zm2.77,1.94c-.92,2.01-1.86,4.01-2.84,6,0-.19,0-.38,0-.55.04-2.28.06-4.57.07-6.85.98.38,1.88.84,2.77,1.4Zm-2.81-10.58c0-.54,0-1.07,0-1.61,2.19,1.23,4.58,2.22,6.97,2.89-.14.33-.29.65-.43.98,0,0-.01-.01-.02-.01-2.05-.86-4.29-1.86-6.5-2.25Zm7.22.43c-2.47-.8-4.85-1.68-7.24-2.67-.04-2.82-.1-5.64-.19-8.45,3.43,1.56,6.87,3.15,10.37,4.54-.95,2.21-1.89,4.42-2.85,6.62-.03-.01-.05-.03-.08-.04Zm-7.44,21.67c.29-.88.33-2.02.29-3.14.03-.03.06-.06.08-.1,2.42-4.84,4.84-9.76,7.15-14.73,1.92,1.86,3.92,3.76,6.03,5.36.34.26.73-.29.45-.58-1.89-1.91-4.09-3.67-6.21-5.35.45-.97.9-1.94,1.34-2.91,2.14,2.51,4.64,5.15,7.47,6.75.03.02.06.02.09.03-5.85,4.58-11.7,9.16-16.68,14.68Zm17.12-15.02c0-.08-.03-.16-.1-.23-1.34-1.26-2.89-2.29-4.26-3.53-1.17-1.05-2.27-2.16-3.34-3.31,1.17-2.62,2.31-5.26,3.39-7.92,1.77,1.82,3.71,3.49,5.62,5.16.92.81,1.85,1.62,2.79,2.42.1.09,1.3,1.03,2.12,1.54-.03.04-.06.1-.07.16,0,.04-.01.08-.02.12-.03.19.04.41.23.5-2.09,1.73-4.22,3.41-6.35,5.08Zm7.87-6.35c-.2.17-.41.34-.61.51-1.17-1.68-3.49-2.97-5.06-4.29-2.1-1.76-4.13-3.62-6.29-5.3-.01,0-.02-.01-.03-.02.14-.35.28-.69.42-1.04,1.81,1.57,3.66,3.11,5.51,4.65.59.49,5.91,5.35,6.26,5.1-.14.1-.19.24-.19.38Zm5.98-6.18s-.05.09-.08.13c-.1.18-.08.41.04.58-1.63,1.65-3.33,3.21-5.08,4.72-.73-1.65-3.71-3.23-4.88-4.18-2.43-1.96-4.85-3.93-7.32-5.83.32-.81.64-1.62.94-2.44,1.07-.71,2.11-1.44,3.12-2.23.45-.35,1.51-1.67,2.09-1.74,1.16-.15,1.87.98,2.6,1.71,1.39,1.37,2.75,2.77,4.07,4.2.39.42,3.37,3.55,4.74,4.88-.1.03-.19.1-.26.2Z"/>
            <path class="cls-4" d="m83.58,34.86c-.32-.37-.62-.45-1.08-.46-.08,0-.14.04-.18.1-.1-.19-.31-.34-.55-.28-.86.18-1.36,1.08-1.27,1.93.1.93.91,1.55,1.82,1.51.89-.03,1.68-.69,1.69-1.61,0-.43-.15-.86-.43-1.18Zm-1.26,1.73c-1.01.08-.89-1.15-.18-1.5.12-.06.19-.15.22-.25,0,0,0,.01.02.02.69.35.93,1.65-.06,1.73Z"/>
          </g>
          <path class="cls-4" d="m151.22,1.78c-1.55-1.7-2.82-3.41-3.6-5.6-.14-.39-.73-.24-.63.17.56,2.3,1.67,4.6,3.44,6.21.53.48,1.26-.25.78-.78Z"/>
          <path class="cls-4" d="m147.29.37c-.65-.83-1.37-1.61-1.97-2.48-.57-.82-1.01-1.72-1.57-2.54-.33-.49-1.1-.19-.96.41.47,2.03,1.96,4.24,3.56,5.56.67.56,1.47-.27.94-.94Z"/>
        </g>
        <g>
          <path class="cls-4" d="m3.12-33.29c-.69-1.06-1.42-1.69-2.68-1.27-.1.03-.17.09-.22.15-.13-.14-.33-.2-.56-.1-7.43,3.35-14.97,6.41-22.65,9.15-7.05,2.51-15.21,3.99-21.74,7.73-1.82,1.04-2.35,2.1-1.96,4.14.66,3.46,2.36,7.02,3.6,10.32,2.71,7.22,5.44,14.83,9.37,21.5-.17.3.11.76.54.63,6.06-1.88,12.07-3.95,18.04-6.14.9,4-.33,7.31-2.91,10.43-.11.13-.11.27-.05.4,0,.03-.01.05,0,.08.21.75.64,1.47.98,2.17.04.08.1.13.15.17.05.1.16.17.3.12C-8.24,23.41-.05,19.72,8.19,16.43c.26-.1.31-.36.23-.56.66-1.12.2-2.85-1.08-3.32-.09-.03-.17-.03-.25,0,0-.23-.15-.48-.45-.48-3.46.04-7.7-.26-8.86-4.2C3.41,5.64,9.01,3.34,14.57,1.02c.39-.16.41-.57.25-.85-1.46-7.65-4.8-15.28-7.47-22.57-1.25-3.42-2.23-7.83-4.23-10.89ZM7.96,15.62s-.05,0-.08.01C-.24,18.89-8.58,21.84-16.49,25.57c0,0,0,0,0,0-.33-.57-.63-1.2-1.01-1.74,0,0,0,0,0,0,.26-.19.5-.41.73-.63C-8.56,20.71.1,18.18,7.4,13.62c.51.54.72,1.21.55,2Zm-1.23-2.7s.05-.01.07-.02c0,.02,0,.04,0,.06C-.23,17.27-8.28,19.44-15.97,22.27c2.02-2.67,2.52-6.58,1.41-9.66,3.96-1.46,7.89-2.98,11.82-4.54.58,4.46,5.92,4.88,9.47,4.84ZM14.11-.04C-1.49,6.5-17.36,12.17-33.21,18.04c-.54-1.47-1.12-2.92-1.72-4.37,8.08-2.59,15.91-6.14,23.77-9.3C-3.32,1.22,4.64-1.73,12.37-5.13c.75,2.29,1.36,4.1,1.74,5.09Zm-2.06-6.07c-.14.05-.28.1-.42.15-.02,0-.02.02-.04.02C3.81-3.06-3.85.27-11.55,3.38c-7.87,3.18-15.97,6.05-23.6,9.78-1.93-4.6-4.06-9.12-5.84-13.77-1.2-3.13-2.35-6.27-3.44-9.44-.27-.79-.56-1.58-.81-2.38-.57-1.86-.79-1.79.79-3.41,1.71-1.76,3.63-2.38,5.91-3.2C-25.53-23.66-12.54-27.77.06-33.47c.12-.06.2-.14.25-.24.13.11.3.17.5.11,2.1-.61,7.89,17.27,11.24,27.49Z"/>
          <path class="cls-4" d="m6.85-7.75s0-.02,0-.03C4.47-14.77,1.73-21.67-.36-28.76c-.13-.43-.57-.4-.82-.15-.05-.28-.31-.53-.65-.4-13.23,5.13-26.86,9.86-39.73,15.85-.21.1-.21.32-.11.45-.27.02-.53.28-.43.62,2.15,6.88,4.3,14.4,7.64,20.8.05.1.13.14.21.15-.02.2.17.43.43.35C-20.02,4.83-6.02-.5,6.85-6.92c.38-.19.3-.7,0-.83ZM-13.57.75c-6.75,2.65-13.59,5.02-20.39,7.53,0-.02,0-.04,0-.06-1.79-7.06-4.83-14.07-7.26-20.94-.03-.09-.08-.14-.13-.19,0,0,.02,0,.02,0C-27.84-17.3-14.65-23.12-1.46-28.38c.06-.02.1-.06.14-.09,0,.03,0,.05,0,.08.93,3.74,2.38,7.35,3.67,10.97,1.18,3.3,2.24,6.69,3.84,9.82C-.42-4.86-6.91-1.87-13.57.75Z"/>
        </g>
      </g>
    </pattern>
  </defs>
  <g id="BACKGROUND_1" data-name="BACKGROUND 1">
    <rect class="cls-1" width="750" height="500"/>
  </g>
</svg>