<svg xmlns="http://www.w3.org/2000/svg" width="43.999" height="43.999" viewBox="0 0 43.999 43.999">
  <g id="gear" transform="translate(-2 -2)">
    <path id="Path_14" data-name="Path 14" d="M40.2,29.2l5.5-1.5a23,23,0,0,0,0-7.4l-5.5-1.5a1.8,1.8,0,0,1-1.1-2.6l2.8-5a20.6,20.6,0,0,0-5.1-5.1l-5,2.8-.8.2a1.8,1.8,0,0,1-1.8-1.3L27.7,2.3a23,23,0,0,0-7.4,0L18.8,7.8A1.8,1.8,0,0,1,17,9.1l-.8-.2-5-2.8a20.6,20.6,0,0,0-5.1,5.1l2.8,5a1.8,1.8,0,0,1-1.1,2.6L2.3,20.3a23,23,0,0,0,0,7.4l5.5,1.5a1.8,1.8,0,0,1,1.1,2.6l-2.8,5a20.6,20.6,0,0,0,5.1,5.1l5-2.8.8-.2a1.8,1.8,0,0,1,1.8,1.3l1.5,5.5a23,23,0,0,0,7.4,0l1.5-5.5A1.8,1.8,0,0,1,31,38.9l.8.2,5,2.8a20.6,20.6,0,0,0,5.1-5.1l-2.8-5a1.8,1.8,0,0,1,1.1-2.6ZM24,33a9,9,0,1,1,9-9A9,9,0,0,1,24,33Z" fill="#fff"/>
  </g>
</svg>
