<?xml version="1.0" encoding="UTF-8"?>
<svg id="Layer_2" data-name="Layer 2" xmlns="http://www.w3.org/2000/svg" viewBox="0 0 382.99 383.05">
  <defs>
    <style>
      .cls-1 {
        fill: #666;
        stroke-width: 0px;
      }
    </style>
  </defs>
  <g id="BACKGROUND_1" data-name="BACKGROUND 1">
    <path class="cls-1" d="m177.22,0c9.48,0,18.96,0,28.43,0,.44.84,1.26.64,1.97.7,36.14,3.07,68.95,15.23,97.87,37.06,41.99,31.69,67.24,73.67,75.44,125.77.68,4.35.46,8.85,2.05,13.06v29.93c-1.4,3.49-1.17,7.24-1.69,10.87-6.58,45.34-26.28,84.01-60.12,114.85-44.11,40.22-96.35,56.51-155.49,49.03-41.59-5.26-77.79-22.9-107.57-52.44C12.77,283.88-6.02,229.18,1.68,165.88c4.74-38.93,20.95-73.09,47.24-102.19C78.47,30.96,115.05,10.56,158.58,2.9c6.19-1.09,12.42-1.94,18.64-2.9Zm24.77,175.24c0-4.7-.13-9.4.05-14.08.1-2.52-.53-3.46-3.26-3.43-11.09.15-22.19.15-33.29,0-2.79-.04-3.57.75-3.57,3.55.09,42.52.09,85.03,0,127.55,0,3.1,1.08,3.7,3.89,3.67,11.22-.14,22.44-.17,33.66.02,3.2.05,4.29-.68,4.24-4.09-.21-12.96-.13-25.93-.07-38.9.06-11.22-.4-22.44.52-33.65,1.44-17.62,11.42-26.18,28.42-24.42,7.92.82,13.05,5.14,15.63,12.53,1.99,5.72,2.35,11.7,2.35,17.7.01,22.19.11,44.39-.06,66.58-.03,3.58,1.11,4.3,4.4,4.24,11.22-.19,22.44-.16,33.66-.01,2.85.04,3.85-.64,3.83-3.7-.13-23.81-.03-47.63-.11-71.44-.03-9.61-.63-19.19-2.85-28.59-3.29-13.97-10.21-25.18-24.22-30.56-10.46-4.02-21.37-4.89-32.37-2.94-12.9,2.29-23.06,8.96-30.84,19.97Zm-107.99,49.81c0,21.3.03,42.61-.04,63.91,0,2.39.37,3.57,3.2,3.54,11.83-.15,23.67-.14,35.51,0,2.57.03,3.14-.93,3.13-3.26-.05-42.73-.06-85.47.02-128.2,0-2.69-.92-3.32-3.44-3.29-11.59.12-23.17.16-34.76-.02-3.03-.05-3.69.93-3.68,3.78.11,21.18.06,42.36.06,63.54Zm20.61-85.75c13.44.05,24.36-10.71,24.41-24.07.06-13.58-10.89-24.59-24.4-24.53-13.34.05-24.21,10.99-24.21,24.35,0,13.45,10.73,24.2,24.2,24.25Z"/>
  </g>
</svg>