<?xml version="1.0" encoding="UTF-8"?>
<svg id="Layer_2" data-name="Layer 2" xmlns="http://www.w3.org/2000/svg" viewBox="0 0 490.32 122.96">
  <defs>
    <style>
      .cls-1 {
        fill: #666;
      }

      .cls-1, .cls-2 {
        stroke-width: 0px;
      }

      .cls-3 {
        fill: none;
        stroke: #666;
        stroke-miterlimit: 10;
      }

      .cls-2 {
        fill: #29abe2;
      }
    </style>
  </defs>
  <g id="Layer_1-2" data-name="Layer 1">
    <g>
      <g>
        <path class="cls-1" d="m2.8,72.33h35.16v24.33c0,5.98-4.85,10.83-10.83,10.83h-13.5c-5.98,0-10.83-4.85-10.83-10.83v-24.33h0Z" transform="translate(69.55 11.92) rotate(45)"/>
        <path class="cls-1" d="m70.75,15.21h13.5c5.98,0,10.83,4.85,10.83,10.83v24.33h-35.16v-24.33c0-5.98,4.85-10.83,10.83-10.83Z" transform="translate(45.89 -45.2) rotate(45)"/>
        <path class="cls-1" d="m36.31,58.12h65.26v24.33c0,5.98-4.85,10.83-10.83,10.83H25.48v-24.33c0-5.98,4.85-10.83,10.83-10.83Z" transform="translate(72.13 -22.75) rotate(45)"/>
        <path class="cls-2" d="m93.2,58.12h54.42c5.98,0,10.83,4.85,10.83,10.83v13.5c0,5.98-4.85,10.83-10.83,10.83h-65.26v-24.33c0-5.98,4.85-10.83,10.83-10.83Z" transform="translate(88.8 -62.97) rotate(45)"/>
      </g>
      <line class="cls-3" x1="176.86" x2="176.86" y2="122.96"/>
      <g>
        <g>
          <path class="cls-2" d="m198.46,13.62h16.78l9.63,26.23,9.38-26.23h16.72v43.69h-13.64v-21.78l-6.73,21.78h-11.72l-6.73-21.78v21.78h-13.7V13.62Z"/>
          <path class="cls-2" d="m269.66,22.07c4.63,0,7.96,2.04,9.63,5.18v-4.75h13.64v34.8h-13.64v-4.75c-1.67,3.15-5,5.18-9.63,5.18-8.02,0-14.38-6.6-14.38-17.83s6.36-17.83,14.38-17.83Zm4.57,11.97c-2.84,0-5.06,2.04-5.06,5.86s2.22,5.86,5.06,5.86,5.06-2.04,5.06-5.86-2.22-5.86-5.06-5.86Z"/>
          <path class="cls-2" d="m312.79,57.31h-13.7V22.5h13.7v6.42c2.71-3.89,6.91-6.66,11.42-6.66v14.62h-3.89c-4.94,0-7.53,1.42-7.53,6.17v14.25Z"/>
          <path class="cls-2" d="m341.61,22.5v37.21c0,10.8-6.17,14.26-14.32,14.26h-4.57v-11.66h2.65c1.79,0,2.53-.74,2.53-2.34V22.5h13.7Zm-14.81-9.5c0-3.83,3.02-6.85,7.9-6.85s7.84,3.02,7.84,6.85-3.02,6.73-7.84,6.73-7.9-2.96-7.9-6.73Z"/>
          <path class="cls-2" d="m364.19,57.74c-10.49,0-18.39-6.73-18.39-17.83s7.9-17.83,18.39-17.83,18.39,6.73,18.39,17.83-7.9,17.83-18.39,17.83Zm0-11.85c2.41,0,4.5-1.85,4.5-5.99s-2.1-5.99-4.5-5.99-4.5,1.85-4.5,5.99,2.04,5.99,4.5,5.99Z"/>
          <path class="cls-2" d="m386.9,11.64h13.7v16.17c1.97-3.02,5.43-5.55,10.67-5.55,8.02,0,12.71,5.86,12.71,14.87v20.18h-13.64v-18.45c0-3.33-1.91-5.37-4.88-5.37s-4.88,2.04-4.88,5.37v18.45h-13.7V11.64Z"/>
          <path class="cls-2" d="m453.36,38.86c0-3.33-1.91-5.37-4.88-5.37s-4.88,2.04-4.88,5.37v18.45h-13.7V22.5h13.7v5.31c1.97-3.02,5.43-5.55,10.67-5.55,8.02,0,12.71,5.86,12.71,14.87v20.18h-13.64v-18.45Z"/>
        </g>
        <g>
          <path class="cls-1" d="m198.46,72.69h36.78v10.86h-11.6v32.83h-13.7v-32.83h-11.48v-10.86Z"/>
          <path class="cls-1" d="m255.47,116.81c-10.49,0-18.39-6.73-18.39-17.83s7.9-17.83,18.39-17.83,18.39,6.73,18.39,17.83-7.9,17.83-18.39,17.83Zm0-11.85c2.41,0,4.5-1.85,4.5-5.99s-2.1-5.99-4.5-5.99-4.5,1.85-4.5,5.99,2.04,5.99,4.5,5.99Z"/>
          <path class="cls-1" d="m325.01,97.93c0-2.96-1.91-4.75-4.88-4.75s-4.88,1.79-4.88,4.75v18.45h-13.64v-18.45c0-2.96-1.91-4.75-4.88-4.75s-4.88,1.79-4.88,4.75v18.45h-13.7v-34.8h13.7v4.69c1.85-2.71,5.18-4.94,10.06-4.94s9.01,2.28,11.29,6.23c2.34-3.33,6.29-6.23,11.42-6.23,9.01,0,14.01,5.86,14.01,14.87v20.18h-13.64v-18.45Z"/>
          <path class="cls-1" d="m357.1,81.14c4.63,0,7.96,2.04,9.63,5.18v-4.75h13.64v34.8h-13.64v-4.75c-1.67,3.15-5,5.18-9.63,5.18-8.02,0-14.38-6.6-14.38-17.83s6.36-17.83,14.38-17.83Zm4.57,11.97c-2.84,0-5.06,2.04-5.06,5.86s2.22,5.86,5.06,5.86,5.06-2.04,5.06-5.86-2.22-5.86-5.06-5.86Z"/>
          <path class="cls-1" d="m388.69,92.99h-4.32v-11.42h4.32v-8.39h13.7v8.39h5.68v11.42h-5.68v9.38c0,1.6.74,2.35,2.53,2.35h3.27v11.66h-5.18c-8.14,0-14.32-3.46-14.32-14.25v-9.13Z"/>
          <path class="cls-1" d="m425.96,81.14c4.63,0,7.96,2.04,9.63,5.18v-4.75h13.64v34.8h-13.64v-4.75c-1.67,3.15-5,5.18-9.63,5.18-8.02,0-14.38-6.6-14.38-17.83s6.36-17.83,14.38-17.83Zm4.57,11.97c-2.84,0-5.06,2.04-5.06,5.86s2.22,5.86,5.06,5.86,5.06-2.04,5.06-5.86-2.22-5.86-5.06-5.86Z"/>
          <path class="cls-1" d="m471.93,116.81c-10.49,0-18.39-6.73-18.39-17.83s7.9-17.83,18.39-17.83,18.39,6.73,18.39,17.83-7.9,17.83-18.39,17.83Zm0-11.85c2.41,0,4.5-1.85,4.5-5.99s-2.1-5.99-4.5-5.99-4.5,1.85-4.5,5.99,2.04,5.99,4.5,5.99Z"/>
        </g>
      </g>
    </g>
  </g>
</svg>